<?xml version="1.0" encoding="UTF-8"?>
<svg width="29px" height="28px" viewBox="0 0 29 28" version="1.1" xmlns="http://www.w3.org/2000/svg" xmlns:xlink="http://www.w3.org/1999/xlink">
    <!-- Generator: Sketch 55 (78076) - https://sketchapp.com -->
    <title>check-circle</title>
    <desc>Created with Sketch.</desc>
    <defs>
        <path d="M25.0000778,12.8453582 C25.0000778,12.1550023 25.5597219,11.5953582 26.2500778,11.5953582 C26.9404338,11.5953582 27.5000778,12.1550023 27.5000778,12.8453582 L27.5000776,14.0085729 C27.4965959,20.098016 23.4882318,25.4598658 17.6486872,27.1864368 C11.8091426,28.9130077 5.52949376,26.5930021 2.21514088,21.4845391 C-1.09921201,16.3760762 -0.65873513,9.69607652 3.29770465,5.06704712 C7.25414443,0.438017728 13.7840575,-1.03732981 19.3463276,1.44107292 C19.9769182,1.72204768 20.2603379,2.46101741 19.9793631,3.09160801 C19.6983884,3.72219861 18.9594186,4.00561826 18.328828,3.7246435 C13.7778798,1.69685945 8.4352236,2.90396198 5.19813651,6.69134966 C1.96104942,10.4787374 1.60065924,15.9441916 4.31240251,20.1238431 C7.02414578,24.3034946 12.1620403,26.2016811 16.9398495,24.7890321 C21.7176587,23.3763831 24.9972293,18.9894151 25.0000778,14.0078582 L25.0000778,12.8453582 Z M13.7500778,14.7400913 L26.6161944,1.87397474 C27.1043497,1.38581937 27.8958059,1.38581937 28.3839613,1.87397474 C28.8721167,2.3621301 28.8721167,3.15358633 28.3839613,3.64174169 L14.6339613,17.3917417 C14.1458059,17.8798971 13.3543497,17.8798971 12.8661944,17.3917417 L9.11619436,13.6417417 C8.628039,13.1535863 8.628039,12.3621301 9.11619436,11.8739747 C9.60434973,11.3858194 10.3958059,11.3858194 10.8839613,11.8739747 L13.7500778,14.7400913 Z" id="path-1"></path>
    </defs>
    <g id="Page-1" stroke="none" stroke-width="1" fill="none" fill-rule="evenodd">
        <g id="Campaign-Copy-3" transform="translate(-1117.000000, -884.000000)">
            <g id="Group-21" transform="translate(1098.000000, 866.000000)">
                <g id="check-circle" transform="translate(19.000000, 18.000000)">
                    <mask id="mask-2" fill="white">
                        <use xlink:href="#path-1"></use>
                    </mask>
                    <use id="Combined-Shape" fill="#11CA6D" fill-rule="nonzero" xlink:href="#path-1"></use>
                </g>
            </g>
        </g>
    </g>
</svg>