<svg xmlns="http://www.w3.org/2000/svg" width="22" height="22" viewBox="0 0 22 22"><g><g><path fill="#d8d8d8" d="M0 10.812C0 4.841 4.84 0 10.812 0c5.971 0 10.812 4.84 10.812 10.812 0 5.971-4.84 10.812-10.812 10.812C4.841 21.624 0 16.784 0 10.812zm6.061 1.976c.996 0 1.802-.81 1.802-1.807 0-.998-.807-1.807-1.802-1.807S4.26 9.983 4.26 10.98c0 .998.807 1.807 1.802 1.807zm4.92 0a1.807 1.807 0 1 0 0-3.614 1.807 1.807 0 0 0 0 3.614zm4.91 0c.995 0 1.801-.81 1.801-1.807 0-.998-.806-1.807-1.802-1.807-.995 0-1.802.809-1.802 1.807 0 .998.807 1.807 1.802 1.807z"/></g></g></svg>