<svg xmlns="http://www.w3.org/2000/svg" width="67" height="67" viewBox="0 0 67 67"><g><g><path fill="#090919" d="M19.11 21.07a.16.16 0 0 1-.153-.109.154.154 0 0 1 .105-.195 15.184 15.184 0 0 0 6.264-3.76 14.572 14.572 0 0 0 3.69-6.203.16.16 0 0 1 .197-.107.155.155 0 0 1 .11.191 14.882 14.882 0 0 1-3.768 6.335 15.508 15.508 0 0 1-6.397 3.84.165.165 0 0 1-.048.007"/></g><g><path fill="#090919" d="M27.563 3.12c-.22.185-.322.452-.304.801.008.138.035.26.082.366a.554.554 0 0 0 .201.247c.088.057.191.082.31.073a.607.607 0 0 0 .343-.133c.098-.08.187-.182.265-.31.079-.127.168-.296.269-.506a6.76 6.76 0 0 1 .307-.587c.088-.146.195-.269.32-.369a.797.797 0 0 1 .45-.17c.2-.014.37.033.514.144.142.11.252.261.33.455.076.193.12.41.133.648.008.14.005.264-.007.37-.012.104-.03.193-.053.264-.023.072-.052.15-.088.235a.555.555 0 0 0-.06.203c.002.036.02.062.056.079a.528.528 0 0 0 .169.033l.007.135c-.222-.003-.6.015-1.133.055l-.007-.134c.178-.027.346-.087.504-.18.157-.093.282-.216.375-.37a.897.897 0 0 0 .124-.524.861.861 0 0 0-.078-.329.497.497 0 0 0-.188-.216.445.445 0 0 0-.272-.062.533.533 0 0 0-.395.205 2.74 2.74 0 0 0-.294.478l-.197.394c-.117.238-.22.428-.308.568-.088.14-.194.258-.317.351a.805.805 0 0 1-.437.159.762.762 0 0 1-.546-.155 1.142 1.142 0 0 1-.353-.5 2.332 2.332 0 0 1-.147-.727 2.06 2.06 0 0 1 .134-.958.46.46 0 0 0 .06-.202c-.002-.036-.02-.063-.057-.08a.522.522 0 0 0-.168-.033l-.007-.134a23.9 23.9 0 0 0 1.34-.076l.008.134c-.369.052-.663.171-.885.357"/></g><g><path fill="#090919" d="M17.46 15.143h-.74a.716.716 0 0 1 .238-.55c.141-.138.324-.252.327-.478.001-.104-.031-.258-.183-.258-.139 0-.18.16-.186.364h-.176c0-.322.132-.561.373-.561.265 0 .348.26.348.446 0 .231-.117.374-.241.49-.126.117-.257.206-.288.335h.528z"/></g><g><path fill="#090919" d="M19.313 14.401c0 .324-.094.742-.552.742-.458 0-.551-.418-.551-.742 0-.323.093-.741.551-.741.458 0 .552.418.552.741m-.26 0c0-.297-.064-.547-.292-.547-.228 0-.291.25-.291.547 0 .298.063.548.291.548.228 0 .292-.25.292-.548"/></g><g><path fill="#090919" d="M18.95 13.906c.24.002.467-.068.51-.246h.231v1.483h-.312v-1.047h-.429z"/></g><g><path fill="#090919" d="M19.69 14.695c0-.18.112-.308.286-.349v-.004c-.14-.048-.221-.154-.221-.293 0-.242.176-.389.486-.389s.487.147.487.389c0 .139-.08.245-.221.293v.004c.174.041.286.17.286.349 0 .279-.235.448-.552.448-.317 0-.551-.17-.551-.448m.858 0c0-.157-.129-.25-.302-.25-.172 0-.301.093-.301.25 0 .167.129.264.301.264.173 0 .302-.097.302-.264m-.552-.634c0 .135.105.21.245.21s.246-.075.246-.21c0-.14-.11-.218-.246-.218s-.245.078-.245.218"/></g><g><path fill="#090919" d="M8.57 13.66h.731v.224h-.553v.389h.512v.212h-.512v.434h.563v.224H8.57z"/></g><g><path fill="#090919" d="M9.47 14.637c0 .218.102.304.23.304.14 0 .192-.108.192-.215 0-.109-.038-.152-.075-.174-.064-.038-.146-.063-.271-.117-.156-.065-.202-.212-.202-.359 0-.283.169-.416.333-.416.19 0 .349.157.349.452h-.16c-.007-.182-.086-.25-.195-.25-.074 0-.167.042-.167.185 0 .099.043.154.108.182.014.006.215.087.262.109.12.056.177.214.177.36 0 .318-.18.445-.361.445-.208 0-.376-.155-.38-.506z"/></g><g><path fill="#090919" d="M10.79 13.66h.741v.224h-.29v1.259h-.161v-1.259h-.29z"/></g><g><path fill="#090919" d="M11.53 13.66h.718c.534 0 .765.332.765.741 0 .41-.23.742-.765.742h-.718zm.305 1.271h.297c.474 0 .575-.233.575-.53 0-.297-.101-.53-.575-.53h-.297z"/></g><g><path fill="#090919" d="M21.171 4.038c-.03.03-.06.059-.092.088-.254.11-.479.087-.647-.192l-.002-.094c.254.032.51.053.741.198"/></g><g><path fill="#090919" d="M11.83 18.1l-.255.104a.07.07 0 0 0-.045.07c.147 1.667 1.611 3.193 1.933 3.51a.08.08 0 0 0 .116-.004c.047-.055.107-.115.175-.18-1.607-1.639-1.88-2.995-1.924-3.5"/></g><g><path fill="#090919" d="M15.246 22.48a.076.076 0 1 0 0 .152.076.076 0 0 0 0-.152"/></g><g><path fill="#090919" d="M15.246 21.73a.076.076 0 0 0-.076.075c0 .042.034.076.076.076a.076.076 0 0 0 .076-.076.076.076 0 0 0-.076-.075"/></g><g><path fill="#090919" d="M15.189 22.025s.165.273-.083.45a.417.417 0 0 1-.273.078c-.103-.007-.227-.052-.24-.22 0 0 .023-.316-.111-.495l-.722-1.167.41-.341s.587.835 1.019 1.695m-.99-1.125c.077 0 .14-.068.14-.152 0-.084-.063-.152-.14-.152-.077 0-.14.068-.14.152 0 .084.063.152.14.152m.33.629c.077 0 .14-.07.14-.157s-.063-.157-.14-.157c-.077 0-.14.07-.14.157 0 .086.063.157.14.157m.342.642c.077 0 .14-.068.14-.152 0-.084-.063-.152-.14-.152-.077 0-.14.068-.14.152 0 .084.063.152.14.152"/></g><g><path fill="#090919" d="M17.164 18.1l.255.104a.07.07 0 0 1 .045.07c-.147 1.667-1.611 3.193-1.933 3.51a.08.08 0 0 1-.116-.004 2.615 2.615 0 0 0-.175-.18c1.607-1.639 1.881-2.995 1.924-3.5"/></g><g><path fill="#090919" d="M13.756 22.48a.076.076 0 1 1 0 .152.076.076 0 0 1 0-.152"/></g><g><path fill="#090919" d="M14.496 20.99a.076.076 0 1 1 0 .151.076.076 0 0 1 0-.151"/></g><g><path fill="#090919" d="M13.756 21.73c.042 0 .076.034.076.075a.076.076 0 0 1-.076.076.076.076 0 0 1-.076-.076c0-.041.034-.075.076-.075"/></g><g><path fill="#090919" d="M13.156 22.475c-.247-.177-.082-.45-.082-.45.431-.86 1.02-1.695 1.02-1.695l.409.34-.722 1.168c-.134.179-.112.495-.112.495-.012.168-.136.213-.239.22a.417.417 0 0 1-.274-.078m.83-1.726c0 .086.06.157.134.157.075 0 .135-.07.135-.157s-.06-.158-.135-.158c-.074 0-.134.07-.134.158m-.392.623c0 .086.062.157.14.157.077 0 .14-.07.14-.157s-.063-.158-.14-.158c-.077 0-.14.07-.14.158m-.342.647c0 .084.062.152.14.152.077 0 .139-.068.139-.152 0-.084-.062-.152-.14-.152-.077 0-.14.068-.14.152"/></g><g><path fill="#090919" d="M12.764 17.4c.183.362 1.13 2.213 1.732 2.897 0 0-.617.411-1.054.77-1.651-1.57-1.881-2.876-1.912-3.272l1.134-.43c.038-.014.083.001.1.036m-.217.593c.098 0 .178-.074.178-.165 0-.09-.08-.164-.178-.164-.098 0-.178.074-.178.164 0 .091.08.165.178.165"/></g><g><path fill="#090919" d="M14.5 20.297c.6-.684 1.549-2.535 1.731-2.896.017-.035.062-.05.1-.035l1.135.43c-.031.395-.261 1.7-1.912 3.27-.437-.358-1.054-.769-1.054-.769m1.76-2.468c0 .091.082.165.184.165.1 0 .183-.074.183-.165 0-.09-.082-.164-.183-.164-.102 0-.184.074-.184.164"/></g><g><path fill="#090919" d="M28.604 13.032c.242-.038.486-.085.728-.138-.083.362-.346.633-.585.656-.238.026-.478.046-.718.058l.067-.16c.118-.219.305-.38.508-.416m-1.423-.862c.172.167.343.341.508.52.17.18.174.504.033.76-.15-.197-.304-.391-.461-.577-.154-.186-.18-.464-.08-.703m-.307.807c.158.181.313.368.463.56.153.19.13.51-.031.75-.132-.21-.27-.415-.41-.612-.138-.197-.14-.473-.022-.698m-.374.772c.14.195.275.397.406.603.133.205.084.522-.092.747-.112-.221-.23-.44-.351-.65a.696.696 0 0 1 .037-.7m-.436.732c.123.207.241.42.354.637.115.216.04.528-.154.735a13.41 13.41 0 0 0-.295-.68.693.693 0 0 1 .095-.692m-.492.688c.107.218.209.441.304.667.099.226-.004.53-.219.718a13.223 13.223 0 0 0-.24-.704.682.682 0 0 1 .155-.68m-.55.64c.087.226.17.458.245.691.079.234-.05.528-.28.697a13.361 13.361 0 0 0-.179-.724.682.682 0 0 1 .213-.665m-.61.588c.068.235.128.473.182.713.057.24-.094.522-.335.67-.03-.248-.068-.496-.112-.738a.688.688 0 0 1 .266-.645m-.647.533c.047.24.088.485.122.732.037.247-.143.517-.403.643-.009-.252-.025-.504-.048-.75a.69.69 0 0 1 .329-.625m-1.086 1.062a.686.686 0 0 1 .387-.59c.026.242.045.488.057.735.015.25-.19.5-.463.603.014-.25.02-.502.02-.748m.701 1.506a13.005 13.005 0 0 1-.584-.433l.03-.016.11-.052c.233-.093.484-.093.663.018.206.13.418.258.633.379-.273.198-.643.255-.852.104m.888-.513c-.21-.12-.418-.247-.62-.379l.148-.088c.219-.106.46-.125.645-.032.217.112.44.22.666.32-.253.221-.617.31-.839.179m.836-.59c-.22-.1-.438-.208-.652-.32l.15-.11c.206-.117.44-.154.628-.08.228.092.461.18.696.26-.234.24-.589.36-.822.25m.77-.67a12.98 12.98 0 0 1-.67-.256c.05-.042.099-.086.148-.129.19-.127.412-.179.6-.124.233.07.472.136.712.195-.21.259-.546.403-.79.314m.713-.717c-.232-.06-.462-.127-.688-.2l.14-.149c.176-.141.39-.211.58-.173.238.05.481.095.726.133-.186.281-.508.458-.758.389m.652-.788a12.959 12.959 0 0 1-.706-.137c.043-.053.083-.107.125-.16.166-.157.375-.246.568-.226.244.03.492.052.74.068-.162.297-.47.501-.727.455m.579-.844c-.24-.018-.48-.043-.717-.074.038-.055.073-.112.11-.168.149-.17.347-.278.54-.278h.01c.246.007.495.007.744 0-.143.33-.45.54-.687.52m.505-.885c-.24.004-.483 0-.722-.01l.089-.169c.136-.196.331-.33.532-.346.246-.016.495-.039.742-.069-.114.35-.4.593-.64.594"/></g><g><g><g><path fill="#d8d8d8" d="M2 6a3 3 0 0 1 3-3h57a3 3 0 0 1 3 3v60H2z"/></g><g><path fill="#b1b1b1" d="M6 38h11v3H6z"/></g><g><path fill="#b1b1b1" d="M50 38h7v3h-7z"/></g><g><path fill="#b1b1b1" d="M50 43h11v3H50z"/></g><g><path fill="#b1b1b1" d="M6 43h34v3H6z"/></g></g><g><path fill="#b1b1b1" d="M12.5 19.75l-3.82 2.009.73-4.255-3.092-3.013 4.272-.62L12.5 10l1.91 3.87 4.272.621-3.091 3.013.73 4.255z"/></g></g></g></svg>