<?xml version="1.0" encoding="UTF-8"?>
<svg width="321px" height="467px" viewBox="0 0 321 467" version="1.1" xmlns="http://www.w3.org/2000/svg" xmlns:xlink="http://www.w3.org/1999/xlink">
    <!-- Generator: Sketch 55 (78076) - https://sketchapp.com -->
    <title>coupon-bg</title>
    <desc>Created with Sketch.</desc>
    <g id="coupon-bg" stroke="none" stroke-width="1" fill="none" fill-rule="evenodd">
        <path d="M315.65,467 L312.975,462.754545 L310.3,467 L307.625,462.754545 L304.95,467 L302.275,462.754545 L299.6,467 L296.925,462.754545 L294.25,467 L291.575,462.754545 L288.9,467 L286.225,462.754545 L283.55,467 L280.875,462.754545 L278.2,467 L275.525,462.754545 L272.85,467 L270.175,462.754545 L267.5,467 L264.825,462.754545 L262.15,467 L259.475,462.754545 L256.8,467 L254.125,462.754545 L251.45,467 L248.775,462.754545 L246.1,467 L243.425,462.754545 L240.75,467 L238.075,462.754545 L235.4,467 L232.725,462.754545 L230.05,467 L227.375,462.754545 L224.7,467 L222.025,462.754545 L219.35,467 L216.675,462.754545 L214,467 L211.325,462.754545 L208.65,467 L205.975,462.754545 L203.3,467 L200.625,462.754545 L197.95,467 L195.275,462.754545 L192.6,467 L189.925,462.754545 L187.25,467 L184.575,462.754545 L181.9,467 L179.225,462.754545 L176.55,467 L173.875,462.754545 L171.2,467 L168.525,462.754545 L165.85,467 L163.175,462.754545 L160.5,467 L157.825,462.754545 L155.15,467 L152.475,462.754545 L149.8,467 L147.125,462.754545 L144.45,467 L141.775,462.754545 L139.1,467 L136.425,462.754545 L133.75,467 L131.075,462.754545 L128.4,467 L125.725,462.754545 L123.05,467 L120.375,462.754545 L117.7,467 L115.025,462.754545 L112.35,467 L109.675,462.754545 L107,467 L104.325,462.754545 L101.65,467 L98.975,462.754545 L96.3,467 L93.625,462.754545 L90.95,467 L88.275,462.754545 L85.6,467 L82.925,462.754545 L80.25,467 L77.575,462.754545 L74.9,467 L72.225,462.754545 L69.55,467 L66.875,462.754545 L64.2,467 L61.525,462.754545 L58.85,467 L56.175,462.754545 L53.5,467 L50.825,462.754545 L48.15,467 L45.475,462.754545 L42.8,467 L40.125,462.754545 L37.45,467 L34.775,462.754545 L32.1,467 L29.425,462.754545 L26.75,467 L24.075,462.754545 L21.4,467 L18.725,462.754545 L16.05,467 L13.375,462.754545 L10.7,467 L8.025,462.754545 L5.35,467 L0,467 L2.675,462.754545 L5.35,467 L0,467 L0,0 L2.675,0 L5.35,0 L2.675,4.24545455 L0,0 L2.675,0 L5.35,0 L8.025,4.24545455 L10.7,0 L13.375,4.24545455 L16.05,0 L18.725,4.24545455 L21.4,0 L24.075,4.24545455 L26.75,0 L29.425,4.24545455 L32.1,0 L34.775,4.24545455 L37.45,0 L40.125,4.24545455 L42.8,0 L45.475,4.24545455 L48.15,0 L50.825,4.24545455 L53.5,0 L56.175,4.24545455 L58.85,0 L61.525,4.24545455 L64.2,0 L66.875,4.24545455 L69.55,0 L72.225,4.24545455 L74.9,0 L77.575,4.24545455 L80.25,0 L82.925,4.24545455 L85.6,0 L88.275,4.24545455 L90.95,0 L93.625,4.24545455 L96.3,0 L98.975,4.24545455 L101.65,0 L104.325,4.24545455 L107,0 L109.675,4.24545455 L112.35,0 L115.025,4.24545455 L117.7,0 L120.375,4.24545455 L123.05,0 L125.725,4.24545455 L128.4,0 L131.075,4.24545455 L133.75,0 L136.425,4.24545455 L139.1,0 L141.775,4.24545455 L144.45,0 L147.125,4.24545455 L149.8,0 L152.475,4.24545455 L155.15,0 L157.825,4.24545455 L160.5,0 L163.175,4.24545455 L165.85,0 L168.525,4.24545455 L171.2,0 L173.875,4.24545455 L176.55,0 L179.225,4.24545455 L181.9,0 L184.575,4.24545455 L187.25,0 L189.925,4.24545455 L192.6,0 L195.275,4.24545455 L197.95,0 L200.625,4.24545455 L203.3,0 L205.975,4.24545455 L208.65,0 L211.325,4.24545455 L214,0 L216.675,4.24545455 L219.35,0 L222.025,4.24545455 L224.7,0 L227.375,4.24545455 L230.05,0 L232.725,4.24545455 L235.4,0 L238.075,4.24545455 L240.75,0 L243.425,4.24545455 L246.1,0 L248.775,4.24545455 L251.45,0 L254.125,4.24545455 L256.8,0 L259.475,4.24545455 L262.15,0 L264.825,4.24545455 L267.5,0 L270.175,4.24545455 L272.85,0 L275.525,4.24545455 L278.2,0 L280.875,4.24545455 L283.55,0 L286.225,4.24545455 L288.9,0 L291.575,4.24545455 L294.25,0 L296.925,4.24545455 L299.6,0 L302.275,4.24545455 L304.95,0 L307.625,4.24545455 L310.3,0 L312.975,4.24545455 L315.65,0 L318.325,4.24545455 L321,0 L321,467 L318.325,462.754545 L315.65,467 Z" fill="#030303"></path>
    </g>
</svg>