<svg xmlns="http://www.w3.org/2000/svg" width="321" height="467" viewBox="0 0 321 467"><g><g><path fill="#030303" d="M303.928 10.88l-6.925-9.565L296.105 0h-.166l-.961 1.315-6.989 9.565L281 1.315l-.672-.917-.671.917-6.986 9.565-6.989-9.565L264.718 0h-.915l-.96 1.315-6.99 9.565-6.988-9.565-.298-.406-.298.406-6.988 9.565-6.989-9.565-.96-1.315h-.169l-.96 1.315-6.989 9.565-6.989-9.565L217.262 0H216.1l-.96 1.315-6.99 9.565-6.988-9.565-.547-.746-.548.746-6.989 9.565-6.988-9.565L185.129 0h-.166L184 1.315l-6.988 9.565-6.989-9.565-.96-1.315h-.916l-.96 1.315-6.99 9.565-6.988-9.565-.671-.917-.671.917-6.989 9.565-6.99-9.565L136.925 0h-.165l-.963 1.315-6.989 9.565-6.988-9.565L120.86 0h-.168l-.961 1.315-6.989 9.565-6.988-9.565-.672-.917-.671.917-6.989 9.565-6.988-9.565L89.47 0h-.913l-.963 1.315-6.988 9.565-6.989-9.565L72.658 0h-.167l-.963 1.315-6.988 9.565-6.989-9.565L56.591 0h-.915l-.961 1.315-6.989 9.565-6.988-9.565-.672-.917-.671.917-6.989 9.565-6.988-9.565L24.455 0h-.166l-.963 1.315-6.989 9.565-5.979-9.486C3.718 3.922 0 9.63 0 16.237v433.854c0 7.05 4.267 13.488 11.413 15.895l5.2-7.376 5.81 8.39h3.943l6.04-8.258 6.03 8.258H41.7l6.027-8.247L53.752 467h4.762l6.026-8.247L70.568 467h4.013l6.026-8.247L86.634 467h4.763l6.025-8.247 6.026 8.247h3.267l6.027-8.247 6.026 8.247h4.016l6.025-8.247 6.028 8.247h4.013l6.028-8.247 6.026 8.247h3.266l6.028-8.247 6.025 8.247h4.763l6.026-8.247 6.027 8.247h4.014l6.025-8.247 6.028 8.247h3.017l6.028-8.247 6.025 8.247h5.01l6.028-8.247L231.24 467h4.015l6.026-8.247 6.027 8.247h2.52l6.026-8.247 6.025 8.247h4.763l6.028-8.247 6.025 8.247h3.267l6.027-8.247 6.026 8.247h4.014l6.027-8.247 5.281 7.035c6.924-2.55 11.663-8.835 11.663-15.697V16.237c0-6.404-4.133-11.955-10.45-14.594z"/></g></g></svg>