<svg xmlns="http://www.w3.org/2000/svg" width="16" height="18" viewBox="0 0 16 18"><g><g><g><path d="M.5 4.5a.75.75 0 0 1 .75-.75h3V3A2.25 2.25 0 0 1 6.5.75h3A2.25 2.25 0 0 1 11.75 3v.75h3a.75.75 0 0 1 0 1.5H14V15a2.25 2.25 0 0 1-2.25 2.25h-7.5A2.25 2.25 0 0 1 2 15V5.25h-.75A.75.75 0 0 1 .5 4.5zm3 10.5c0 .414.336.75.75.75h7.5a.75.75 0 0 0 .75-.75V5.25h-9zm6.75-12a.75.75 0 0 0-.75-.75h-3a.75.75 0 0 0-.75.75v.75h4.5zM6.5 7.5a.75.75 0 0 1 .75.75v4.5a.75.75 0 0 1-1.5 0v-4.5a.75.75 0 0 1 .75-.75zm3 0a.75.75 0 0 1 .75.75v4.5a.75.75 0 0 1-1.5 0v-4.5a.75.75 0 0 1 .75-.75z"/></g></g></g></svg>