<?xml version="1.0" encoding="utf-8"?>
<!-- Svg Vector Icons : http://www.onlinewebfonts.com/icon -->
<!DOCTYPE svg PUBLIC "-//W3C//DTD SVG 1.1//EN" "http://www.w3.org/Graphics/SVG/1.1/DTD/svg11.dtd">
<svg version="1.1" xmlns="http://www.w3.org/2000/svg" xmlns:xlink="http://www.w3.org/1999/xlink" x="0px" y="0px" viewBox="0 0 1000 1000" enable-background="new 0 0 1000 1000" xml:space="preserve">
<metadata> Svg Vector Icons : http://www.onlinewebfonts.com/icon </metadata>
<g><path d="M500,10C229.8,10,10,229.8,10,500c0,270.2,219.8,490,490,490c270.2,0,490-219.8,490-490C990,229.8,770.2,10,500,10z M500,70.4c110.7,0,211.7,42.1,288,111.1L181.4,788c-69-76.3-111.1-177.3-111.1-288C70.4,263.1,263.1,70.4,500,70.4z M500,929.6c-104.6,0-200.5-37.6-275.1-99.9l604.8-604.8c62.3,74.6,99.9,170.5,99.9,275.1C929.6,736.9,736.9,929.6,500,929.6z"/></g>
</svg>