<svg xmlns="http://www.w3.org/2000/svg" width="18" height="18" viewBox="0 0 18 18"><defs><clipPath id="w8b8a"><path d="M15 10.245a.75.75 0 0 1 .75.75V15a2.25 2.25 0 0 1-2.25 2.25H3A2.25 2.25 0 0 1 .75 15V4.5A2.25 2.25 0 0 1 3 2.25h4.005a.75.75 0 0 1 0 1.5H3a.75.75 0 0 0-.75.75V15c0 .414.336.75.75.75h10.5a.75.75 0 0 0 .75-.75v-4.005a.75.75 0 0 1 .75-.75zM14.03.97l3 3a.75.75 0 0 1 0 1.06l-7.5 7.5a.75.75 0 0 1-.53.22H6a.75.75 0 0 1-.75-.75V9a.75.75 0 0 1 .22-.53l7.5-7.5a.75.75 0 0 1 1.06 0zM6.75 9.31v1.94h1.94l6.75-6.75-1.94-1.94z"/></clipPath></defs><g><g><g><path d="M15 10.245a.75.75 0 0 1 .75.75V15a2.25 2.25 0 0 1-2.25 2.25H3A2.25 2.25 0 0 1 .75 15V4.5A2.25 2.25 0 0 1 3 2.25h4.005a.75.75 0 0 1 0 1.5H3a.75.75 0 0 0-.75.75V15c0 .414.336.75.75.75h10.5a.75.75 0 0 0 .75-.75v-4.005a.75.75 0 0 1 .75-.75zM14.03.97l3 3a.75.75 0 0 1 0 1.06l-7.5 7.5a.75.75 0 0 1-.53.22H6a.75.75 0 0 1-.75-.75V9a.75.75 0 0 1 .22-.53l7.5-7.5a.75.75 0 0 1 1.06 0zM6.75 9.31v1.94h1.94l6.75-6.75-1.94-1.94z"/></g><g clip-path="url(#w8b8a)"><g><path d="M0 0h18v18H0z"/></g></g></g></g></svg>