<svg xmlns="http://www.w3.org/2000/svg" width="167" height="38" viewBox="0 0 167 38"><g><g><g><path fill="#fff" d="M8.56 19.22L20.676 6.48l-.927-.96C15.235.854 7.917.854 3.403 5.522c-4.513 4.67-3.951 11.895-1.69 14.898l.137.144.093.08c.35.284 3.86.798 6.617-1.424"/></g><g><path fill="#fff" d="M50.408 18.39L39.02 6.273l.637-.657c4.52-4.66 11.847-4.66 16.367 0 3.38 3.486 4.231 8.59 2.554 12.893a11.932 11.932 0 0 1-2.554 3.983l-10.456 10.78-2.74 2.827c-.274.28-.569.525-.878.738a5.664 5.664 0 0 1-7.318-.738l-4.612-4.757L42.356 18.6c.548-.568 1.46-1.13 2.188-1.372 0 0 2.822-1.287 5.864 1.162"/></g><g><path fill="#fff" d="M20.812 37.325a5.055 5.055 0 0 1-3.661-1.565L3.6 21.607c.195.015.394.023.593.023 1.287 0 3.184-.293 4.911-1.684L26.231 1.949A5.2 5.2 0 0 1 29.991.34c1.41 0 2.735.566 3.732 1.595l13.212 14.118a6.065 6.065 0 0 0-.356-.01c-.782 0-1.64.152-2.547.452a5.744 5.744 0 0 0-2.31 1.46l-17.22 17.788a5.104 5.104 0 0 1-3.69 1.582"/></g></g><g><g><path fill="#fff" d="M159.23 27.713h2.498V21.58l5.275-8.01h-2.895l-3.57 5.953-3.53-5.953h-3.054l5.275 8.01zm-11.82 0h8.468v-2.237h-5.97V13.57h-2.498zm-8.432 0h2.496V15.767h4.3V13.57h-11.096v2.197h4.3zm-14.93 0h9.658v-2.237h-7.159V21.48h6.446v-2.117h-6.446v-3.596h6.803V13.57h-9.301zm-10.133 0h8.468v-2.237h-5.97V13.57h-2.498zm-10.134 0h8.468v-2.237h-5.969V13.57h-2.499zm-10.788-5.394l2.206-5.753 2.167 5.753zm-4.918 5.394h2.796l1.27-3.236h6.087l1.31 3.236h2.855L96.345 13.57h-2.162zm-15.29 0h2.42l3.291-10.607h.04l3.292 10.607h2.42l4.105-14.143h-2.658L82.92 23.957h-.04L79.845 13.57h-2.578l-3.094 10.387h-.04L71.418 13.57H68.68z"/></g></g></g></svg>