<svg xmlns="http://www.w3.org/2000/svg" width="58" height="36" viewBox="0 0 58 36"><defs><linearGradient id="vfg2a" x1="27.85" x2="10.21" y1="1.29" y2="31.21" gradientUnits="userSpaceOnUse"><stop offset="0" stop-color="#2fd8e5"/><stop offset="1" stop-color="#c65ba8"/></linearGradient><linearGradient id="vfg2b" x1="67.66" x2="43.42" y1="1.29" y2="58.99" gradientUnits="userSpaceOnUse"><stop offset="0" stop-color="#2fd8e5"/><stop offset="1" stop-color="#c65ba8"/></linearGradient><linearGradient id="vfg2c" x1="61.27" x2="24.9" y1="0" y2="59.85" gradientUnits="userSpaceOnUse"><stop offset="0" stop-color="#2fd8e5"/><stop offset="1" stop-color="#c65ba8"/></linearGradient></defs><g><g><g><path fill="url(#vfg2a)" d="M8.459 17.684L20.43 5.542l-.916-.914c-4.46-4.45-11.692-4.45-16.152 0-4.46 4.45-3.905 11.337-1.67 14.2l.135.136.092.077c.345.27 3.814.76 6.539-1.357"/></g><g><path fill="url(#vfg2b)" d="M48.856 17.1L37.972 5.324l.608-.638c4.32-4.528 11.324-4.528 15.643 0 3.231 3.387 4.045 8.347 2.442 12.528a11.62 11.62 0 0 1-2.442 3.87L44.23 31.56l-2.619 2.746a5.65 5.65 0 0 1-.839.718c-2.152 1.512-5.092 1.276-6.994-.718l-4.408-4.622 11.79-12.38c.525-.551 1.397-1.098 2.092-1.332 0 0 2.697-1.251 5.604 1.128"/></g><g><path fill="url(#vfg2c)" d="M20.566 36c-1.346 0-2.61-.54-3.56-1.523L3.83 20.7c.19.015.383.023.577.023 1.251 0 3.096-.285 4.775-1.64L25.836 1.567A5.053 5.053 0 0 1 29.492 0c1.37 0 2.66.551 3.629 1.552l12.847 13.742a5.889 5.889 0 0 0-.346-.01c-.76 0-1.594.149-2.476.44a5.584 5.584 0 0 0-2.246 1.422L24.155 34.46A4.96 4.96 0 0 1 20.566 36"/></g></g></g></svg>