<?xml version="1.0" encoding="UTF-8"?>
<svg width="168px" height="37px" viewBox="0 0 168 37" version="1.1" xmlns="http://www.w3.org/2000/svg" xmlns:xlink="http://www.w3.org/1999/xlink">
    <!-- Generator: Sketch 55 (78076) - https://sketchapp.com -->
    <title>logo-dark</title>
    <desc>Created with Sketch.</desc>
    <defs>
        <linearGradient x1="103.25677%" y1="21.8226463%" x2="0%" y2="96.6777933%" id="linearGradient-1">
            <stop stop-color="#2FD8E5" offset="0%"></stop>
            <stop stop-color="#FF6CD6" offset="100%"></stop>
        </linearGradient>
        <path d="M3.13387821,4.83862719 C-1.02251758,9.17392982 -0.504810481,15.8839901 1.57891453,18.6738893 L1.57891453,18.6738893 L1.70419597,18.8076261 L1.78986636,18.8819243 C2.11228181,19.1447544 5.34564822,19.6221206 7.8853608,17.5594156 L7.8853608,17.5594156 L19.0464626,5.72927741 L18.1925222,4.83862719 C16.1134032,2.67004715 13.388532,1.58622149 10.6627396,1.58622149 L10.6627396,1.58622149 C7.93878965,1.58622149 5.21391847,2.67004715 3.13387821,4.83862719 L3.13387821,4.83862719 Z" id="path-2"></path>
        <linearGradient x1="85.4655008%" y1="16.7662099%" x2="16.7032935%" y2="105.05414%" id="linearGradient-4">
            <stop stop-color="#2FD8E5" offset="0%"></stop>
            <stop stop-color="#FF6CD6" offset="100%"></stop>
        </linearGradient>
        <path d="M36.5342768,4.92314145 L35.9474807,5.53331579 L46.4379583,16.7876425 C43.6357074,14.5141162 41.0370389,15.7093893 41.0370389,15.7093893 L41.0370389,15.7093893 C40.3664148,15.9341414 39.5262922,16.4560866 39.0205605,16.9836042 L39.0205605,16.9836042 L27.6567976,28.8146711 L31.9053121,33.2335592 C33.7393954,35.1402379 36.5720455,35.3649901 38.6465586,33.9189605 L38.6465586,33.9189605 C38.9321266,33.7211414 39.2029556,33.4945318 39.4553608,33.2335592 L39.4553608,33.2335592 L41.9794132,30.6089737 L51.6113446,20.5972851 C52.6605766,19.5051009 53.4435855,18.2438882 53.9640562,16.8972325 L53.9640562,16.8972325 C55.5088868,12.9009156 54.7258779,8.1606875 51.6113446,4.92314145 L51.6113446,4.92314145 C49.5294619,2.76013377 46.800906,1.67723684 44.0732713,1.67723684 L44.0732713,1.67723684 C41.3447154,1.67723684 38.6161594,2.76013377 36.5342768,4.92314145 L36.5342768,4.92314145 Z" id="path-5"></path>
        <linearGradient x1="103.25677%" y1="25.3930076%" x2="0%" y2="90.7632356%" id="linearGradient-7">
            <stop stop-color="#2FD8E5" offset="0%"></stop>
            <stop stop-color="#FF6CD6" offset="100%"></stop>
        </linearGradient>
        <path d="M24.1673412,1.51563816 L8.39109247,18.230886 C6.8002025,19.5227467 5.05271075,19.7939353 3.86622188,19.7939353 L3.86622188,19.7939353 C3.68290566,19.7939353 3.49958945,19.7874342 3.32087917,19.7716458 L3.32087917,19.7716458 L15.8029631,32.9177917 C16.7020417,33.8548783 17.8995848,34.3712511 19.1754288,34.3712511 L19.1754288,34.3712511 C20.4577211,34.3712511 21.6653973,33.8493059 22.5746089,32.9010746 L22.5746089,32.9010746 L38.4383703,16.3817884 C39.0352995,15.7586118 39.7713279,15.2905329 40.5653911,15.0258454 L40.5653911,15.0258454 C41.401829,14.747227 42.1912862,14.6042029 42.9116545,14.6042029 L42.9116545,14.6042029 C43.0231181,14.6042029 43.1327393,14.6079178 43.2405182,14.6144189 L43.2405182,14.6144189 L31.0688743,1.50263596 C30.1504508,0.547903509 28.929878,0.021314693 27.6310043,0.021314693 L27.6310043,0.021314693 C26.3219976,0.021314693 25.0912918,0.554404605 24.1673412,1.51563816 L24.1673412,1.51563816 Z" id="path-8"></path>
    </defs>
    <g id="logo-dark" stroke="none" stroke-width="1" fill="none" fill-rule="evenodd">
        <g id="Group-2" transform="translate(3.000000, 1.000000)">
            <g id="Group">
                <mask id="mask-3" fill="white">
                    <use xlink:href="#path-2"></use>
                </mask>
                <use id="Clip-2" fill="url(#linearGradient-1)" fill-rule="nonzero" xlink:href="#path-2"></use>
                <mask id="mask-6" fill="white">
                    <use xlink:href="#path-5"></use>
                </mask>
                <use id="Clip-5" fill="url(#linearGradient-4)" fill-rule="nonzero" xlink:href="#path-5"></use>
                <mask id="mask-9" fill="white">
                    <use xlink:href="#path-8"></use>
                </mask>
                <use id="Clip-8" fill="url(#linearGradient-7)" fill-rule="nonzero" xlink:href="#path-8"></use>
            </g>
            <path d="M159.058726,11 L155.432679,16.8928092 L151.84524,11 L148.742424,11 L154.102756,18.9290108 L154.102756,25 L156.640684,25 L156.640684,18.9290108 L162,11 L159.058726,11 Z M142.113636,11 L142.113636,25 L150.636364,25 L150.636364,22.7846284 L144.628787,22.7846284 L144.628787,11 L142.113636,11 Z M129.045455,11 L129.045455,13.1747861 L133.449298,13.1747861 L133.449298,25 L136.00627,25 L136.00627,13.1747861 L140.409091,13.1747861 L140.409091,11 L129.045455,11 Z M118.25,11 L118.25,25 L128.098485,25 L128.098485,22.7846284 L120.797268,22.7846284 L120.797268,18.8300219 L127.369383,18.8300219 L127.369383,16.733437 L120.797268,16.733437 L120.797268,13.1747861 L127.734444,13.1747861 L127.734444,11 L118.25,11 Z M108.022727,11 L108.022727,25 L116.545455,25 L116.545455,22.7846284 L110.536162,22.7846284 L110.536162,11 L108.022727,11 Z M97.6060606,11 L97.6060606,25 L106.128788,25 L106.128788,22.7846284 L100.120502,22.7846284 L100.120502,11 L97.6060606,11 Z M87.9175757,11 L81.6969697,25 L84.5439639,25 L85.8375892,21.7967192 L92.0388418,21.7967192 L93.371174,25 L96.280303,25 L90.1197945,11 L87.9175757,11 Z M88.8192152,13.9473684 L90.9772727,19.6578947 L86.6212121,19.6578947 L88.8192152,13.9473684 Z M79.3633414,11 L76.5305094,21.2819769 L76.4896905,21.2819769 L73.3935766,11 L70.7627983,11 L67.6064765,21.2819769 L67.5656576,21.2819769 L64.7930335,11 L62,11 L66.1900605,25 L68.6575633,25 L72.0169591,14.4992576 L72.0587985,14.4992576 L75.4171738,25 L77.8856971,25 L82.0757576,11 L79.3633414,11 Z" id="Fill-10" fill="#10141E"></path>
        </g>
    </g>
</svg>