<svg xmlns="http://www.w3.org/2000/svg" width="75" height="47" viewBox="0 0 75 47"><g><g><g><path fill="#fff" d="M10.7 23.773L25.845 8.018 24.686 6.83a14.214 14.214 0 0 0-20.432 0c-5.641 5.775-4.94 14.711-2.112 18.426l.17.177.117.1c.437.351 4.825.986 8.271-1.761"/></g><g><path fill="#fff" d="M63.015 22.744L48.78 7.755l.796-.812a14.265 14.265 0 0 1 20.459 0c4.225 4.311 5.289 10.625 3.193 15.946a14.74 14.74 0 0 1-3.193 4.927l-13.07 13.333-3.425 3.496a7.34 7.34 0 0 1-1.098.913 7.135 7.135 0 0 1-9.147-.913l-5.765-5.884 15.42-15.757c.686-.702 1.826-1.398 2.736-1.696 0 0 3.527-1.592 7.33 1.436"/></g><g><path fill="#fff" d="M26.024 46.165a6.35 6.35 0 0 1-4.575-1.936L4.51 26.723c.243.019.492.029.741.029 1.61 0 3.98-.362 6.14-2.083L32.798 2.411a6.532 6.532 0 0 1 4.7-1.991c1.762 0 3.418.7 4.664 1.972L58.68 19.854a7.67 7.67 0 0 0-.445-.013c-.978 0-2.05.189-3.183.56a7.19 7.19 0 0 0-2.888 1.807l-21.525 22a6.412 6.412 0 0 1-4.614 1.957"/></g></g></g></svg>