<svg xmlns="http://www.w3.org/2000/svg" width="21" height="18" viewBox="0 0 21 18"><defs><clipPath id="rxf1a"><path fill="#fff" d="M7.7 1.4A1.4 1.4 0 0 1 9.1 0h2.8a1.4 1.4 0 0 1 1.4 1.4v15.2a1.4 1.4 0 0 1-1.4 1.4H9.1a1.4 1.4 0 0 1-1.4-1.4z"/></clipPath><clipPath id="rxf1b"><path fill="#fff" d="M15.4 4.86a1.4 1.4 0 0 1 1.4-1.4h2.8a1.4 1.4 0 0 1 1.4 1.4v11.738a1.4 1.4 0 0 1-1.4 1.4h-2.8a1.4 1.4 0 0 1-1.4-1.4z"/></clipPath><clipPath id="rxf1c"><path fill="#fff" d="M0 8.32a1.4 1.4 0 0 1 1.4-1.4h2.8a1.4 1.4 0 0 1 1.4 1.4v8.277a1.4 1.4 0 0 1-1.4 1.4H1.4a1.4 1.4 0 0 1-1.4-1.4z"/></clipPath></defs><g><g><g><path fill="#b294db" d="M7.7 1.4A1.4 1.4 0 0 1 9.1 0h2.8a1.4 1.4 0 0 1 1.4 1.4v15.2a1.4 1.4 0 0 1-1.4 1.4H9.1a1.4 1.4 0 0 1-1.4-1.4z"/><path fill="none" stroke="#ae96db" stroke-miterlimit="50" stroke-width="2.8" d="M7.7 1.4A1.4 1.4 0 0 1 9.1 0h2.8a1.4 1.4 0 0 1 1.4 1.4v15.2a1.4 1.4 0 0 1-1.4 1.4H9.1a1.4 1.4 0 0 1-1.4-1.4z" clip-path="url(&quot;#rxf1a&quot;)"/></g><g><path fill="#b294db" d="M15.4 4.86a1.4 1.4 0 0 1 1.4-1.4h2.8a1.4 1.4 0 0 1 1.4 1.4v11.738a1.4 1.4 0 0 1-1.4 1.4h-2.8a1.4 1.4 0 0 1-1.4-1.4z"/><path fill="none" stroke="#ae96db" stroke-miterlimit="50" stroke-width="2.8" d="M15.4 4.86a1.4 1.4 0 0 1 1.4-1.4h2.8a1.4 1.4 0 0 1 1.4 1.4v11.738a1.4 1.4 0 0 1-1.4 1.4h-2.8a1.4 1.4 0 0 1-1.4-1.4z" clip-path="url(&quot;#rxf1b&quot;)"/></g><g><path fill="#b294db" d="M0 8.32a1.4 1.4 0 0 1 1.4-1.4h2.8a1.4 1.4 0 0 1 1.4 1.4v8.277a1.4 1.4 0 0 1-1.4 1.4H1.4a1.4 1.4 0 0 1-1.4-1.4z"/><path fill="none" stroke="#ae96db" stroke-miterlimit="50" stroke-width="2.8" d="M0 8.32a1.4 1.4 0 0 1 1.4-1.4h2.8a1.4 1.4 0 0 1 1.4 1.4v8.277a1.4 1.4 0 0 1-1.4 1.4H1.4a1.4 1.4 0 0 1-1.4-1.4z" clip-path="url(&quot;#rxf1c&quot;)"/></g></g></g></svg>