<?xml version="1.0" encoding="UTF-8"?>
<svg width="16px" height="15px" viewBox="0 0 16 15" version="1.1" xmlns="http://www.w3.org/2000/svg" xmlns:xlink="http://www.w3.org/1999/xlink">
    <!-- Generator: Sketch 55 (78076) - https://sketchapp.com -->
    <title>refresh-ccw</title>
    <desc>Created with Sketch.</desc>
    <defs>
        <path d="M15.2882892,9.7586198 C15.3185678,9.83667296 15.3335354,9.91915447 15.3333333,10.001518 L15.3333333,14 C15.3333333,14.3681898 15.0348565,14.6666667 14.6666667,14.6666667 C14.2984768,14.6666667 14,14.3681898 14,14 L14,11.5410786 L12.044856,13.3779537 C10.426664,14.9969563 8.09100876,15.6725468 5.85840168,15.1673914 C3.62579461,14.6622361 1.80847199,13.0469822 1.04485597,10.8890657 C0.922029224,10.5419673 1.10383738,10.1610178 1.45093584,10.0381911 C1.79803431,9.91536438 2.17898396,10.0971725 2.3018107,10.4442708 C2.91270352,12.1706041 4.36656161,13.4628071 6.15264727,13.8669314 C7.93873294,14.2710557 9.80725713,13.7305834 11.1168156,12.4208323 L12.9836347,10.6666667 L10.6666667,10.6666667 C10.2984768,10.6666667 10,10.3681898 10,10 C10,9.63181017 10.2984768,9.33333333 10.6666667,9.33333333 L14.6666667,9.33333333 C14.9465379,9.33333333 15.1861294,9.50579141 15.2849687,9.75023518 L15.2882892,9.7586198 Z M0.0450461346,6.2399292 C0.0147675214,6.16187604 -0.000200036852,6.07939453 2.01845126e-06,5.99703101 L2.01845129e-06,1.998549 C2.01845129e-06,1.63035917 0.298478852,1.33188233 0.666668685,1.33188233 C1.03485852,1.33188233 1.33333535,1.63035917 1.33333535,1.998549 L1.33333535,4.45747036 L3.28847939,2.6205953 C4.90667135,1.00159268 7.24232659,0.326002207 9.47493367,0.831157578 C11.7075407,1.33631295 13.5248634,2.95156678 14.2884794,5.10948335 C14.4113061,5.4565817 14.229498,5.83753122 13.8823995,5.96035792 C13.535301,6.08318462 13.1543514,5.90137653 13.0315247,5.55427818 C12.4206318,3.82794493 10.9667737,2.53574186 9.18068808,2.13161756 C7.39460242,1.72749327 5.52607823,2.26796565 4.21651974,3.57771673 L2.34970067,5.33188233 L4.66666869,5.33188233 C5.03485852,5.33188233 5.33333535,5.63035917 5.33333535,5.998549 C5.33333535,6.36673883 5.03485852,6.66521567 4.66666869,6.66521567 L0.666668685,6.66521567 C0.386797458,6.66521567 0.147205974,6.49275759 0.0483666255,6.24831382 L0.0450461346,6.2399292 Z" id="path-1"></path>
    </defs>
    <g id="Page-1" stroke="none" stroke-width="1" fill="none" fill-rule="evenodd">
        <g id="Business-Copy-5" transform="translate(-1252.000000, -225.000000)">
            <g id="refresh-ccw" transform="translate(1252.000000, 224.669807)">
                <mask id="mask-2" fill="white">
                    <use xlink:href="#path-1"></use>
                </mask>
                <use id="Combined-Shape" fill="#000000" fill-rule="evenodd" xlink:href="#path-1"></use>
                <g id="COLOR/-black" mask="url(#mask-2)" fill="#000000" fill-rule="evenodd">
                    <rect id="Rectangle" x="0" y="0" width="16" height="16"></rect>
                </g>
            </g>
        </g>
    </g>
</svg>