<svg xmlns="http://www.w3.org/2000/svg" width="25" height="25" viewBox="0 0 25 25"><defs><clipPath id="5jada"><path d="M5.923 12.244a.833.833 0 0 0-1.179 1.179l4.167 4.166a.833.833 0 0 0 1.178 0l9.167-9.166a.833.833 0 0 0-1.179-1.179L9.5 15.822z"/></clipPath></defs><g><g><path fill="#20beea" d="M12.5 25C19.404 25 25 19.404 25 12.5S19.404 0 12.5 0 0 5.596 0 12.5 5.596 25 12.5 25z"/></g><g><g><path d="M5.923 12.244a.833.833 0 0 0-1.179 1.179l4.167 4.166a.833.833 0 0 0 1.178 0l9.167-9.166a.833.833 0 0 0-1.179-1.179L9.5 15.822z"/></g><g clip-path="url(#5jada)"><g><path fill="#fff" d="M2 2h20v20H2z"/></g></g></g></g></svg>