<svg xmlns="http://www.w3.org/2000/svg" width="25" height="25" viewBox="0 0 25 25"><defs><linearGradient id="fiqma" x1="28.8" x2="-8.84" y1="26.36" y2="-8.39" gradientUnits="userSpaceOnUse"><stop offset="0" stop-color="#2fd8e5"/><stop offset="1" stop-color="#ff6cd6"/></linearGradient></defs><g><g><path fill="url(#fiqma)" d="M-1.36-1.36h27.727v27.727H-1.36z"/></g><g><g><path fill="#fff" d="M6.026 13.023l3.66-3.787-.28-.285a3.448 3.448 0 0 0-4.938 0c-1.363 1.388-1.194 3.536-.51 4.43l.04.042.029.024c.106.084 1.166.237 1.999-.424"/></g><g><path fill="#fff" d="M18.67 12.777l-3.441-3.603.192-.195a3.46 3.46 0 0 1 4.945 0 3.587 3.587 0 0 1 0 5.017l-3.159 3.205-.828.84a1.731 1.731 0 0 1-2.476 0l-1.393-1.414 3.727-3.787c.165-.169.44-.336.66-.408 0 0 .853-.383 1.772.345"/></g><g><path fill="#fff" d="M9.73 18.406c-.419 0-.812-.165-1.106-.465L4.53 13.733c.059.004.119.006.18.006a2.37 2.37 0 0 0 1.483-.5l5.174-5.35a1.583 1.583 0 0 1 2.263-.005l3.991 4.197a1.867 1.867 0 0 0-.107-.003c-.237 0-.496.046-.77.135a1.74 1.74 0 0 0-.697.434l-5.203 5.288c-.298.304-.694.47-1.115.47"/></g></g></g></svg>