<?xml version="1.0" encoding="UTF-8"?>
<svg width="32px" height="32px" viewBox="0 0 32 32" version="1.1" xmlns="http://www.w3.org/2000/svg" xmlns:xlink="http://www.w3.org/1999/xlink">
    <!-- Generator: Sketch 54.1 (76490) - https://sketchapp.com -->
    <title>menu-dashboard-active</title>
    <desc>Created with Sketch.</desc>
    <g id="menu-dashboard-active" stroke="none" stroke-width="1" fill="none" fill-rule="evenodd">
        <g id="iconfinder_48.Dashboard_290102-Copy" transform="translate(5.000000, 9.000000)" fill="#20BEEA" fill-rule="nonzero">
            <path d="M21.947619,12.0324286 C21.947619,12.0381905 21.9507619,12.042381 21.9507619,12.047619 C21.9507619,12.0502381 21.9491905,12.0528571 21.9491905,12.056 C21.9497143,12.058619 21.9507619,12.0612381 21.9507619,12.064381 C21.9507619,12.3535238 21.716619,12.5881905 21.4269524,12.5881905 C21.4348095,12.5876667 16.7619048,12.5714286 16.7619048,12.5714286 C16.4722381,12.5714286 16.2380952,12.3367619 16.2380952,12.047619 C16.2380952,11.7579524 16.4722381,11.5238095 16.7619048,11.5238095 L20.9240952,11.5238095 C20.9340476,11.3488571 20.952381,11.1770476 20.952381,11 C20.952381,5.50366667 16.4963333,1.04761905 11,1.04761905 C5.50366667,1.04761905 1.04761905,5.50366667 1.04761905,11 C1.04761905,11.1770476 1.06595238,11.3488571 1.07538095,11.5238095 L5.23809524,11.5238095 C5.5277619,11.5238095 5.76190476,11.7579524 5.76190476,12.047619 C5.76190476,12.3367619 5.5277619,12.5714286 5.23809524,12.5714286 C5.23809524,12.5714286 0.565714286,12.5876667 0.573047619,12.5876667 C0.283380952,12.5876667 0.0492380952,12.353 0.0492380952,12.0638571 C0.0492380952,12.0607143 0.0502857143,12.0580952 0.0508095238,12.0554762 C0.0508095238,12.0523333 0.0492380952,12.0497143 0.0492380952,12.0470952 C0.0492380952,12.0413333 0.0523809524,12.0371429 0.0523809524,12.0324286 C0.0204285714,11.6919524 0,11.3483333 0,11 C0,4.92433333 4.92485714,0 11,0 C17.0751429,0 22,4.92433333 22,11 C22,11.3483333 21.9795714,11.6919524 21.947619,12.0324286 Z M7.60728571,5.82895238 C7.81314286,5.71580952 8.06038095,5.75352381 8.23009524,5.89861905 L8.20390476,5.85514286 C12.7998095,9.218 13.7442381,10.7648095 13.7615238,10.793619 C14.5121429,12.0282381 14.0658571,13.607 12.7668095,14.319381 C11.4677619,15.0317619 9.80571429,14.6090476 9.05561905,13.3744286 C9.03728571,13.3466667 8.10019048,11.7956667 7.3317619,6.33338095 L7.35847619,6.37633333 C7.31185714,6.16471429 7.40195238,5.94157143 7.60728571,5.82895238 Z M9.99742857,12.859 C10.2881429,13.3361905 10.8297619,13.6331905 11.4111905,13.6331905 C11.6950952,13.6331905 11.976381,13.5614286 12.2241429,13.4252381 C12.6012857,13.2183333 12.8710476,12.8851905 12.9836667,12.4855238 C13.0968095,12.0853333 13.0386667,11.668381 12.8249524,11.316381 C12.8160476,11.3032857 12.0015238,10.0665714 8.602,7.46742857 C9.273,11.561 9.99166667,12.8485238 9.99742857,12.859 Z" id="Shape"></path>
        </g>
    </g>
</svg>