<?xml version="1.0" encoding="UTF-8"?>
<svg width="32px" height="32px" viewBox="0 0 32 32" version="1.1" xmlns="http://www.w3.org/2000/svg" xmlns:xlink="http://www.w3.org/1999/xlink">
    <!-- Generator: Sketch 55 (78076) - https://sketchapp.com -->
    <title>pushnotification</title>
    <desc>Created with Sketch.</desc>
    <defs>
        <path d="M7.63636364,6.18181814 L0.363636364,6.18181814 C-0.121212121,6.18181814 -0.121212121,5.45454542 0.363636364,5.45454542 C0.765298,5.45454542 1.09090909,5.12893433 1.09090909,4.72727269 L1.09090909,2.90909087 C1.09090911,1.30244434 2.39335347,-2.01858732e-16 4,0 C5.60664653,2.01858732e-16 6.90909089,1.30244434 6.90909091,2.90909087 L6.90909091,4.72727269 C6.90909091,5.12893433 7.234702,5.45454542 7.63636364,5.45454542 C8.12121212,5.45454542 8.12121212,6.18181814 7.63636364,6.18181814 Z M4.94363636,7.45518973 C4.74847395,7.79162846 4.38894651,7.99871134 4,7.99871134 C3.61105349,7.99871134 3.25152605,7.79162846 3.05636364,7.45518973 C2.91573788,7.21276625 3.09065073,6.90909087 3.37090909,6.90909087 L4.62909091,6.90909087 C4.90934927,6.90909087 5.08426212,7.21276625 4.94363636,7.45518973 Z" id="path-1"></path>
    </defs>
    <g id="pushnotification" stroke="none" stroke-width="1" fill="none" fill-rule="evenodd">
        <g id="Group-13" transform="translate(8.000000, 9.000000)" stroke="#B8BFC2">
            <path d="M3.8458278,-1.55376046e-16 L13.1541722,1.55376046e-16 C14.4914503,-9.02779573e-17 14.9763797,0.139238417 15.4652686,0.400699056 C15.9541574,0.662159695 16.3378403,1.04584256 16.5993009,1.53473144 C16.8607616,2.02362033 17,2.50854969 17,3.8458278 L17,8.1541722 C17,9.49145031 16.8607616,9.97637967 16.5993009,10.4652686 C16.3378403,10.9541574 15.9541574,11.3378403 15.4652686,11.5993009 C14.9763797,11.8607616 14.4914503,12 13.1541722,12 L8,12 L4,15 L4,12 L3.57055335,12 C2.56360458,12 2.02362033,11.8607616 1.53473144,11.5993009 C1.04584256,11.3378403 0.662159695,10.9541574 0.400699056,10.4652686 C0.139238417,9.97637967 5.34430255e-17,9.43639542 -6.98726336e-17,8.42944665 L1.03584031e-16,3.8458278 C-6.01853049e-17,2.50854969 0.139238417,2.02362033 0.400699056,1.53473144 C0.662159695,1.04584256 1.04584256,0.662159695 1.53473144,0.400699056 C2.02362033,0.139238417 2.50854969,9.02779573e-17 3.8458278,-1.55376046e-16 Z" id="Rectangle"></path>
        </g>
        <g id="bell" transform="translate(13.000000, 11.000000)">
            <mask id="mask-2" fill="white">
                <use xlink:href="#path-1"></use>
            </mask>
            <use id="Shape" fill="#B8BFC2" fill-rule="nonzero" xlink:href="#path-1"></use>
        </g>
    </g>
</svg>