<svg xmlns="http://www.w3.org/2000/svg" width="27" height="18" viewBox="0 0 27 18"><g><g><g><path fill="none" stroke="#b8bfc2" stroke-miterlimit="50" d="M13.5 11c2.485 0 4.5-2.239 4.5-5s-2.015-5-4.5-5S9 3.239 9 6s2.015 5 4.5 5z"/></g><g><path fill="none" stroke="#b8bfc2" stroke-linecap="round" stroke-linejoin="round" stroke-miterlimit="50" d="M10.102 12c-2.222.241-3.333 1.386-3.92 2.53C5.592 15.675 6.507 17 7.88 17h5.62v0h5.555c1.438 0 2.352-1.386 1.764-2.53-.588-1.145-1.699-2.29-3.855-2.47"/></g></g><g><g><path fill="none" stroke="#b8bfc2" stroke-miterlimit="50" d="M21.5 10.25c1.491 0 2.7-1.4 2.7-3.125C24.2 5.399 22.991 4 21.5 4s-2.7 1.4-2.7 3.125c0 1.726 1.209 3.125 2.7 3.125z"/></g><g><path fill="none" stroke="#b8bfc2" stroke-linecap="round" stroke-linejoin="round" stroke-miterlimit="50" d="M23.577 10.88c1.294.113 1.96.828 2.313 1.544.353.715-.196 1.581-1.059 1.581H21.5m-3.649-2.488c.385-.315.904-.555 1.61-.635"/></g></g><g><g><path fill="none" stroke="#b8bfc2" stroke-miterlimit="50" d="M5.5 10.25c1.491 0 2.7-1.4 2.7-3.125C8.2 5.399 6.991 4 5.5 4S2.8 5.4 2.8 7.125c0 1.726 1.209 3.125 2.7 3.125z"/></g><g><path fill="none" stroke="#b8bfc2" stroke-linecap="round" stroke-linejoin="round" stroke-miterlimit="50" d="M9.048 11.402c-.367-.269-.845-.465-1.47-.52m-4.117-.002c-1.333.15-2 .866-2.352 1.581-.353.716.196 1.544 1.02 1.544H5.5"/></g></g></g></svg>