<?xml version="1.0" encoding="UTF-8"?>
<svg width="32px" height="32px" viewBox="0 0 32 32" version="1.1" xmlns="http://www.w3.org/2000/svg" xmlns:xlink="http://www.w3.org/1999/xlink">
    <!-- Generator: Sketch 54.1 (76490) - https://sketchapp.com -->
    <title>menu-business-active</title>
    <desc>Created with Sketch.</desc>
    <g id="menu-business-active" stroke="none" stroke-width="1" fill="none" fill-rule="evenodd">
        <g id="iconfinder_briefcase_3827988-copy" transform="translate(6.000000, 6.000000)" fill="#20BEEA" fill-rule="nonzero">
            <path d="M18.5,3 L15,3 C14.7495847,1.26442049 13.2534597,-0.0179723312 11.5,-1.77627552e-15 L8.5,-1.77627552e-15 C6.76550809,0.00699041486 5.29777248,1.28328225 5.05,3 L1.5,3 C0.671572875,3 0,3.67157288 0,4.5 L0,13.5 C0,13.7761424 0.223857625,14 0.5,14 L1,14 L1,18.5 C1,19.3284271 1.67157288,20 2.5,20 L17.5,20 C18.3284271,20 19,19.3284271 19,18.5 L19,14 L19.5,14 C19.7761424,14 20,13.7761424 20,13.5 L20,4.5 C20,3.67157288 19.3284271,3 18.5,3 Z M8.5,1 L11.5,1 C12.7069019,0.975660737 13.7588159,1.81719196 14,3 L6.05,3 C6.28763429,1.83583436 7.31182845,0.999757496 8.5,1 Z M18,18.5 C18,18.7761424 17.7761424,19 17.5,19 L2.5,19 C2.22385763,19 2,18.7761424 2,18.5 L2,14 L8,14 L8,15.5 C8,15.7761424 8.22385763,16 8.5,16 L11.5,16 C11.7761424,16 12,15.7761424 12,15.5 L12,14 L18,14 L18,18.5 Z M9,15 L9,12 L11,12 L11,15 L9,15 Z M19,13 L12,13 L12,11.5 C12,11.2238576 11.7761424,11 11.5,11 L8.5,11 C8.22385763,11 8,11.2238576 8,11.5 L8,13 L1,13 L1,4.5 C1,4.22385763 1.22385763,4 1.5,4 L18.5,4 C18.7761424,4 19,4.22385763 19,4.5 L19,13 Z" id="Shape"></path>
        </g>
    </g>
</svg>