<?xml version="1.0" encoding="UTF-8"?>
<svg width="32px" height="32px" viewBox="0 0 32 32" version="1.1" xmlns="http://www.w3.org/2000/svg" xmlns:xlink="http://www.w3.org/1999/xlink">
    <!-- Generator: Sketch 54.1 (76490) - https://sketchapp.com -->
    <title>menu-templates-active</title>
    <desc>Created with Sketch.</desc>
    <g id="menu-templates-active" stroke="none" stroke-width="1" fill="none" fill-rule="evenodd">
        <g id="iconfinder_06.Tags_290148" transform="translate(4.000000, 4.000000)" fill="#20BEEA" fill-rule="nonzero">
            <path d="M23.997913,12.5128696 L23.997913,12.5238261 C23.997913,12.6907826 23.9144348,12.8332174 23.7918261,12.9286957 L13.9106087,22.809913 C13.7118261,23.0086957 13.389913,23.0086957 13.190087,22.809913 C12.9913043,22.6106087 12.9913043,22.2881739 13.190087,22.0893913 L22.9544348,12.3250435 L22.9544348,8.87165217 C22.9544348,8.58365217 23.1886957,8.34991304 23.4761739,8.34991304 C23.7646957,8.34991304 23.997913,8.58365217 23.997913,8.87165217 L23.997913,12.5097391 C23.997913,12.5107826 23.997913,12.5113043 23.997913,12.5128696 Z M9.81182609,23.7782609 C9.79513043,23.8033043 9.78417391,23.8314783 9.76226087,23.8533913 C9.65947826,23.9556522 9.52382609,24.0031304 9.38921739,24 C9.2546087,24.0031304 9.11895652,23.9556522 9.01617391,23.8533913 C8.99426087,23.8314783 8.98382609,23.8033043 8.9666087,23.7782609 L0.22173913,15.0328696 C0.196695652,15.0161739 0.169043478,15.0052174 0.146608696,14.9833043 C0.043826087,14.8805217 -0.00260869565,14.7453913 -1.83175957e-16,14.6107826 C-0.00313043478,14.4761739 0.043826087,14.3405217 0.146608696,14.2377391 C0.169043478,14.2158261 0.196695652,14.2053913 0.22173913,14.1881739 L12.1153043,2.2946087 C12.2107826,2.17252174 12.3526957,2.08852174 12.5196522,2.08852174 L12.5306087,2.08852174 C12.5316522,2.08852174 12.5326957,2.08852174 12.5337391,2.08852174 L14.6358261,2.08852174 C14.7052174,1.30486957 15.0250435,0.617217391 15.5071304,0.166956522 L15.5154783,0.176347826 C15.6172174,0.0683478261 15.7570435,0.00156521739 15.9109565,0.00156521739 C16.2198261,0.00156521739 16.4702609,0.268695652 16.4702609,0.597913043 C16.4702609,0.793565217 16.3763478,0.958434783 16.2401739,1.06695652 C15.9902609,1.29756522 15.8123478,1.66121739 15.7528696,2.08852174 L18.2441739,2.08852174 C18.2452174,2.08852174 18.2462609,2.08852174 18.2483478,2.08852174 L18.2587826,2.08852174 C18.4257391,2.08852174 18.5686957,2.172 18.6631304,2.2946087 L21.7048696,5.33634783 C21.8269565,5.43182609 21.9109565,5.57426087 21.9109565,5.74121739 L21.9109565,5.75217391 C21.9109565,5.75321739 21.9109565,5.75426087 21.9109565,5.75530435 L21.9109565,11.4657391 C21.9109565,11.4667826 21.9109565,11.4678261 21.9109565,11.4693913 L21.9109565,11.4803478 C21.9109565,11.6473043 21.8274783,11.7897391 21.7048696,11.8846957 L9.81182609,23.7782609 Z M20.8674783,5.94 L18.06,3.13252174 L15.861913,3.13252174 C15.9537391,3.36417391 16.0831304,3.5613913 16.2401739,3.70643478 L16.2401739,3.70643478 C16.2615652,3.72365217 16.2881739,3.73408696 16.3064348,3.75443478 L16.3158261,3.74504348 C16.8589565,4.25269565 17.2158261,5.05356522 17.2158261,5.96452174 C17.2158261,5.98643478 17.2106087,6.00573913 17.2095652,6.02713043 C17.834087,6.38765217 18.2593043,7.05495652 18.2593043,7.82817391 C18.2593043,8.98069565 17.3248696,9.91513043 16.1723478,9.91513043 C15.0198261,9.91513043 14.0853913,8.98069565 14.0853913,7.82817391 C14.0853913,6.708 14.9697391,5.80121739 16.0784348,5.7506087 C16.0314783,5.28730435 15.8483478,4.89078261 15.5833043,4.64556522 C15.561913,4.62834783 15.5353043,4.61791304 15.516,4.59756522 L15.5076522,4.60695652 C15.1194783,4.24434783 14.8330435,3.72782609 14.6973913,3.13252174 L12.7184348,3.13252174 L1.24017391,14.6107826 L9.38921739,22.7598261 L20.8674783,11.2815652 L20.8674783,5.94 L20.8674783,5.94 Z M15.5827826,7.284 C15.7121739,7.16452174 15.818087,7.00382609 15.9046957,6.82330435 C15.4586087,6.94226087 15.1283478,7.34504348 15.1283478,7.82765217 C15.1283478,8.40365217 15.5958261,8.87113043 16.1718261,8.87113043 C16.7483478,8.87113043 17.2153043,8.40365217 17.2153043,7.82765217 C17.2153043,7.58086957 17.1266087,7.35756522 16.9831304,7.1786087 C16.6622609,7.98469565 16.3064348,8.1746087 16.3064348,8.1746087 C16.2057391,8.2826087 16.065913,8.34886957 15.9109565,8.34886957 C15.602087,8.34886957 15.3526957,8.08173913 15.3526957,7.75252174 C15.3526957,7.55791304 15.446087,7.39304348 15.5827826,7.284 Z M5.88626087,13.716 C6.08556522,13.5172174 6.408,13.5172174 6.60678261,13.716 L10.2845217,17.3937391 C10.4833043,17.5925217 10.4833043,17.9149565 10.2845217,18.1142609 C10.0857391,18.3130435 9.76278261,18.3130435 9.564,18.1142609 L5.88626087,14.4365217 C5.68747826,14.2377391 5.68747826,13.9153043 5.88626087,13.716 Z M7.97321739,11.6290435 C8.17252174,11.4302609 8.49495652,11.4302609 8.69373913,11.6290435 L12.3714783,15.3067826 C12.5697391,15.5055652 12.5697391,15.828 12.3714783,16.0273043 C12.1726957,16.226087 11.8497391,16.226087 11.6509565,16.0273043 L7.97321739,12.3495652 C7.77443478,12.1507826 7.77443478,11.8283478 7.97321739,11.6290435 Z" id="Shape"></path>
        </g>
    </g>
</svg>