<svg xmlns="http://www.w3.org/2000/svg" width="18" height="18" viewBox="0 0 18 18"><defs><clipPath id="cnyea"><path d="M3.17.67h11.667a2.5 2.5 0 0 1 2.5 2.5v11.667a2.5 2.5 0 0 1-2.5 2.5H3.17a2.5 2.5 0 0 1-2.5-2.5V3.17a2.5 2.5 0 0 1 2.5-2.5zm0 1.666a.833.833 0 0 0-.834.833v11.669c0 .46.373.833.833.833h11.669c.46 0 .833-.373.833-.833V3.169a.833.833 0 0 0-.833-.833z"/></clipPath></defs><g><g><g><path fill="#c1c7ca" d="M3.17.67h11.667a2.5 2.5 0 0 1 2.5 2.5v11.667a2.5 2.5 0 0 1-2.5 2.5H3.17a2.5 2.5 0 0 1-2.5-2.5V3.17a2.5 2.5 0 0 1 2.5-2.5zm0 1.666a.833.833 0 0 0-.834.833v11.669c0 .46.373.833.833.833h11.669c.46 0 .833-.373.833-.833V3.169a.833.833 0 0 0-.833-.833z"/></g><g clip-path="url(#cnyea)"><path fill="#dbdee0" d="M9.003 17.337a8.333 8.333 0 1 0 0-16.667 8.333 8.333 0 0 0 0 16.667z"/></g><g><path fill="#dbdee0" d="M5.62 9.324a.473.473 0 0 0-.654 0 .439.439 0 0 0 0 .634l2.314 2.244c.181.175.474.175.655 0l5.093-4.936a.439.439 0 0 0 0-.635.473.473 0 0 0-.655 0L7.608 11.25z"/><path fill="none" stroke="#c1c7c9" stroke-miterlimit="50" d="M5.62 9.324a.473.473 0 0 0-.654 0 .439.439 0 0 0 0 .634l2.314 2.244c.181.175.474.175.655 0l5.093-4.936a.439.439 0 0 0 0-.635.473.473 0 0 0-.655 0L7.608 11.25v0z"/></g></g></g></svg>