<?xml version="1.0" encoding="UTF-8"?>
<svg width="32px" height="32px" viewBox="0 0 32 32" version="1.1" xmlns="http://www.w3.org/2000/svg" xmlns:xlink="http://www.w3.org/1999/xlink">
    <!-- Generator: Sketch 54.1 (76490) - https://sketchapp.com -->
    <title>menu-botstore-active</title>
    <desc>Created with Sketch.</desc>
    <g id="menu-botstore-active" stroke="none" stroke-width="1" fill="none" fill-rule="evenodd">
        <g id="Group-13" transform="translate(4.000000, 7.000000)" stroke="#20BEEA">
            <path d="M7.67468367,4.57837672 C7.67468367,4.57837672 5.52261992,4.51062011 4.12803825,5.14536085 C3.51302629,5.42533439 3.09259602,6.03564656 3.00720956,6.73452487 C2.76491474,8.71746138 2.21970359,14.3668952 3.4677992,17.083091 C3.79366375,17.7921228 4.43573546,18.2818 5.17629323,18.3999217 C7.18502629,18.7203079 12.3151936,19.1732921 17.462094,18.7460434 C17.462094,18.7460434 20.5217594,18.5449852 20.7235124,16.9891968 C20.7235124,16.9891968 21.5979347,10.8015302 20.9925801,7.12417566 C20.9925801,7.12417566 20.925361,5.0380963 19.344612,5.00271005 C19.344612,5.00271005 12.6857116,4.36626032 7.67468367,4.57837672 Z" id="Stroke-1"></path>
            <path d="M7.47290199,4.5938381 C7.47290199,2.08453122 9.40772271,0.0502243386 11.7945275,0.0502243386 C14.1812367,0.0502243386 16.1160574,2.08453122 16.1160574,4.5938381" id="Stroke-3"></path>
            <path d="M3.05386135,16.0375582 L1.4821004,16.0375582 C0.693255777,16.0375582 0.0478374502,15.3589868 0.0478374502,14.5296217 L0.0478374502,10.7474153 C0.0478374502,9.91805026 0.693255777,9.23947884 1.4821004,9.23947884 L2.73115219,9.23947884" id="Stroke-5"></path>
            <path d="M20.9483857,16.0375582 L22.5201466,16.0375582 C23.3089912,16.0375582 23.9544096,15.3589868 23.9544096,14.5296217 L23.9544096,10.7474153 C23.9544096,9.91805026 23.3089912,9.23947884 22.5201466,9.23947884 L21.2710948,9.23947884" id="Stroke-7"></path>
            <path d="M10.5662343,11.0912651 C10.5662343,12.4220693 9.54006693,13.5009476 8.27418645,13.5009476 C7.00840159,13.5009476 5.98223426,12.4220693 5.98223426,11.0912651 C5.98223426,9.76036032 7.00840159,8.68148201 8.27418645,8.68148201 C9.54006693,8.68148201 10.5662343,9.76036032 10.5662343,11.0912651 Z" id="Stroke-9"></path>
            <path d="M18.4797036,11.0912651 C18.4797036,12.4220693 17.4535363,13.5009476 16.1876558,13.5009476 C14.9218709,13.5009476 13.8957036,12.4220693 13.8957036,11.0912651 C13.8957036,9.76036032 14.9218709,8.68148201 16.1876558,8.68148201 C17.4535363,8.68148201 18.4797036,9.76036032 18.4797036,11.0912651 Z" id="Stroke-11"></path>
        </g>
    </g>
</svg>