<?xml version="1.0" encoding="UTF-8"?>
<svg width="32px" height="32px" viewBox="0 0 32 32" version="1.1" xmlns="http://www.w3.org/2000/svg" xmlns:xlink="http://www.w3.org/1999/xlink">
    <!-- Generator: Sketch 54.1 (76490) - https://sketchapp.com -->
    <title>menu-chatbotQR-active</title>
    <desc>Created with Sketch.</desc>
    <g id="menu-chatbotQR-active" stroke="none" stroke-width="1" fill="none" fill-rule="evenodd">
        <g id="Group-8" transform="translate(6.000000, 6.000000)" stroke="#20BEEA">
            <rect id="Rectangle" x="4" y="4.78571429" width="2" height="1.85714286"></rect>
            <rect id="Rectangle-Copy-5" x="4" y="13.3571429" width="2" height="1.85714286"></rect>
            <rect id="Rectangle-Copy-4" x="14" y="4.78571429" width="2" height="1.85714286"></rect>
            <polyline id="Path-5" stroke-linecap="round" stroke-linejoin="round" points="5 0 0 0 0 4.76190476"></polyline>
            <polyline id="Path-5-Copy-2" stroke-linecap="round" stroke-linejoin="round" transform="translate(2.500000, 17.142857) scale(1, -1) translate(-2.500000, -17.142857) " points="5 14.7619048 0 14.7619048 0 19.5238095"></polyline>
            <polyline id="Path-5-Copy" stroke-linecap="round" stroke-linejoin="round" transform="translate(18.000000, 2.380952) scale(-1, 1) translate(-18.000000, -2.380952) " points="20.5 0 15.5 0 15.5 4.76190476"></polyline>
            <polyline id="Path-5-Copy-3" stroke-linecap="round" stroke-linejoin="round" transform="translate(18.000000, 17.142857) scale(-1, -1) translate(-18.000000, -17.142857) " points="20.5 14.7619048 15.5 14.7619048 15.5 19.5238095"></polyline>
            <path d="M8,4.56952381 L8,8.06447801" id="Line-9" stroke-linecap="round" stroke-linejoin="round"></path>
            <path d="M12,4.56952381 L12,8.06447801" id="Line-9-Copy" stroke-linecap="round" stroke-linejoin="round"></path>
            <path d="M10,4.56952381 L10,6.66666667" id="Line-9-Copy-2" stroke-linecap="round" stroke-linejoin="round"></path>
            <path d="M4.5,8.57142857 L6,8.57142857" id="Line" stroke-linecap="round" stroke-linejoin="round"></path>
            <path d="M14.5,8.57142857 L16,8.57142857" id="Line-Copy-4" stroke-linecap="round" stroke-linejoin="round"></path>
            <path d="M14.5,15.2380952 L16,15.2380952" id="Line-Copy-2" stroke-linecap="round" stroke-linejoin="round"></path>
            <polyline id="Line-Copy-3" stroke-linecap="round" stroke-linejoin="round" points="8.5 13.8095238 8.5 15.2380952 10 15.2380952"></polyline>
            <polyline id="Line-Copy" stroke-linecap="round" stroke-linejoin="round" points="4.5 10.4761905 6 10.4761905 10 10.4761905 10 12.3809524"></polyline>
            <path d="M12,8.0952381 L10,8.0952381" id="Path-6" stroke-linecap="round" stroke-linejoin="round"></path>
            <polyline id="Path-7" stroke-linecap="round" stroke-linejoin="round" points="13 10 13 12.8571429 16.5 12.8571429"></polyline>
        </g>
    </g>
</svg>