<?xml version="1.0" encoding="utf-8"?>
<!-- Generator: Adobe Illustrator 23.1.1, SVG Export Plug-In . SVG Version: 6.00 Build 0)  -->
<svg version="1.1" id="Layer_1" xmlns="http://www.w3.org/2000/svg" xmlns:xlink="http://www.w3.org/1999/xlink" x="0px" y="0px"
	 viewBox="0 0 32 32" style="enable-background:new 0 0 32 32;" xml:space="preserve">
<style type="text/css">
	.st0{fill:none;stroke:#B8BFC2;}
	.st1{fill:none;stroke:#B8BFC2;stroke-width:0.6;}
	.st2{fill:none;stroke:#B8BFC2;stroke-linecap:round;stroke-linejoin:round;}
	.st3{fill:none;stroke:#20BEEA;}
	.st4{fill:none;stroke:#20BEEA;stroke-width:0.6;}
	.st5{fill:none;stroke:#20BEEA;stroke-linecap:round;stroke-linejoin:round;}
	.st6{fill:#20BEEA;}
	.st7{fill:#B8BFC2;}
</style>
<g>
	<path class="st7" d="M24.7,29.1H6.1c-1.8,0-3.3-1.5-3.3-3.3V7.2C2.8,5.4,4.3,4,6.1,4h18.7C26.5,4,28,5.4,28,7.2v18.7
		C28,27.7,26.5,29.1,24.7,29.1z M6.1,5C4.9,5,3.8,6,3.8,7.2v18.7c0,1.2,1,2.3,2.3,2.3h18.7c1.2,0,2.3-1,2.3-2.3V7.2
		C27,6,26,5,24.7,5H6.1z"/>
</g>
<g>
	<g>
		<path class="st7" d="M23,8.5h-3.6c-0.9,0.8-2.2,0.8-3,0.1l-0.1-0.1h-3.8c-0.5,0-0.9,0.4-0.9,0.9v12.5l12.6-9.5V9.8
			C24.2,9.1,23.7,8.5,23,8.5z"/>
	</g>
	<g>
		<path class="st7" d="M6.6,15.4c0-0.5,0.4-0.9,0.9-0.9h0.1v-1H7.5c-1.1,0-1.9,0.9-1.9,1.9v11l1-0.8V15.4z"/>
	</g>
	<g>
		<polygon class="st7" points="8.6,25.4 8.3,25.6 8.6,25.6 		"/>
	</g>
	<g>
		<path class="st7" d="M7.6,24.9l1-0.8V12.4c0-0.5,0.4-0.9,0.9-0.9h1.1v-1H9.5c-1.1,0-1.9,0.9-1.9,1.9v1.1v1V24.9z"/>
	</g>
	<g>
		<path class="st7" d="M11.6,21.9V9.4c0-0.5,0.4-0.9,0.9-0.9h3.8l0.1,0.1c0.9,0.7,2.2,0.7,3-0.1H23c0.7,0,1.3,0.6,1.3,1.3v2.7
			l0.8-0.6l0,0l0.2-0.2V9.8c0-1.3-1-2.3-2.3-2.3h-4l-0.2,0.2c-0.5,0.5-1.3,0.5-1.8,0.1l-0.3-0.3h-4.1c-1.1,0-1.9,0.9-1.9,1.9v1.1v1
			v11.2h0.1L11.6,21.9z"/>
	</g>
</g>
<g>
	<path class="st7" d="M19.3,21.8h-1.1c-0.5,0-0.9-0.4-0.9-1v-1.1c0-0.5,0.4-1,0.9-1h1.1c0.5,0,1,0.4,1,1v1.1
		C20.2,21.4,19.8,21.8,19.3,21.8z M19.2,19.7l-1.1,0l0.1,1.1l1,0V19.7z M19.3,20.8C19.3,20.8,19.3,20.8,19.3,20.8L19.3,20.8z"/>
</g>
<g>
	<path class="st7" d="M24.3,21.8h-1.1c-0.5,0-0.9-0.4-0.9-1v-1.1c0-0.5,0.4-1,0.9-1h1.1c0.5,0,1,0.4,1,1v1.1
		C25.2,21.4,24.8,21.8,24.3,21.8z M24.2,19.7l-1.1,0l0.1,1.1l1,0V19.7z M24.3,20.8C24.3,20.8,24.3,20.8,24.3,20.8L24.3,20.8z"/>
</g>
<g>
	<path class="st7" d="M19.3,26.4h-1.1c-0.5,0-0.9-0.4-0.9-1v-1.1c0-0.5,0.4-1,0.9-1h1.1c0.5,0,1,0.4,1,1v1.1
		C20.2,25.9,19.8,26.4,19.3,26.4z M19.2,24.3l-1.1,0l0.1,1.1l1,0V24.3z M19.3,25.4C19.3,25.4,19.3,25.4,19.3,25.4L19.3,25.4z"/>
</g>
<g>
	<path class="st7" d="M24.3,26.4h-1.1c-0.5,0-0.9-0.4-0.9-1v-1.1c0-0.5,0.4-1,0.9-1h1.1c0.5,0,1,0.4,1,1v1.1
		C25.2,25.9,24.8,26.4,24.3,26.4z M24.2,24.3l-1.1,0l0.1,1.1l1,0V24.3z M24.3,25.4C24.3,25.4,24.3,25.4,24.3,25.4L24.3,25.4z"/>
</g>
<g>
	<path class="st7" d="M21.7,24.1h-1.1c-0.5,0-1-0.4-1-1V22c0-0.5,0.4-1,1-1h1.1c0.5,0,1,0.4,1,1v1.1C22.6,23.6,22.2,24.1,21.7,24.1z
		 M21.6,22l-1.1,0l0,1.1l1,0V22z M21.7,23.1C21.7,23.1,21.7,23.1,21.7,23.1L21.7,23.1z"/>
</g>
</svg>
