<?xml version="1.0" encoding="UTF-8"?>
<svg width="34px" height="34px" viewBox="0 0 34 34" version="1.1" xmlns="http://www.w3.org/2000/svg" xmlns:xlink="http://www.w3.org/1999/xlink">
    <!-- Generator: Sketch 55 (78076) - https://sketchapp.com -->
    <title>Group 21</title>
    <desc>Created with Sketch.</desc>
    <g id="Page-1" stroke="none" stroke-width="1" fill="none" fill-rule="evenodd">
        <g id="E03" transform="translate(-511.000000, -213.000000)" fill-rule="nonzero">
            <g id="Group-21" transform="translate(512.000000, 214.000000)">
                <rect id="Rectangle" stroke="#DCE1E3" stroke-width="1.05205479" fill="#FFFFFF" x="0" y="0" width="32" height="32" rx="4.8"></rect>
                <g id="41408104-0-logo-blue-krak" transform="translate(4.800000, 5.600000)" fill="#0084FF">
                    <path d="M9.6,7.60000413 C9.6,7.82307271 9.42308137,8 9.2,8 C8.97692689,8 8.8,7.82307271 8.8,7.60000413 C8.8,7.37692729 8.97692689,7.2 9.2,7.2 C9.41539033,7.2 9.6,7.38461475 9.6,7.60000413 Z" id="Path"></path>
                    <path d="M13.6,7.60000413 C13.6,7.37692729 13.4230483,7.2 13.2,7.2 C12.9769517,7.2 12.8,7.37692729 12.8,7.60000413 C12.8,7.82307271 12.9769517,8 13.2,8 C13.4230483,8 13.6,7.82307271 13.6,7.60000413 Z" id="Path"></path>
                    <path d="M17.6738887,20 C18.9348708,20 20.2059563,19.503668 21.1767362,18.500451 L21.1867321,18.489898 C21.1968354,18.479345 21.2068312,18.468792 21.2168271,18.458239 C22.3777432,17.1699772 22.7180321,15.2798533 22.087541,13.6430017 C21.7472522,12.7560948 21.0966619,12.0485891 20.256043,11.6790067 C19.4153166,11.2988146 18.4945159,11.2988146 17.6437937,11.6579007 C16.2426547,12.2492098 15.5620769,13.938713 16.1325928,15.4170425 C16.2526505,15.7338598 16.5929394,15.8817154 16.8932449,15.7549658 C17.1934429,15.6282162 17.3335998,15.2691868 17.2135421,14.963036 C16.8932449,14.1182277 17.2835131,13.1467832 18.084256,12.7983069 C19.2351763,12.3125279 20.5462452,12.893284 21.0165876,14.1076747 C21.4670458,15.2904063 21.2268229,16.6630922 20.3860966,17.6028776 L20.3661048,17.6240971 C18.8448007,19.1974037 16.3928074,19.1657447 14.9015982,17.5606656 C13.5805335,16.1351012 13.4403766,13.8542889 14.5613093,12.2703158 C14.5912969,12.2281038 14.7314538,12.0696951 14.8515115,11.9218395 C15.4921059,11.161546 16.1425886,10.3801239 16.4127991,9.88382593 C17.0633893,8.71170402 17.4136741,7.40231352 17.4136741,6.19850987 C17.4136741,5.38541732 17.2635213,4.60400649 16.9533275,3.86483041 C17.0533935,3.41076721 17.3635874,2.13304709 17.653897,0.982047091 C17.7038763,0.770854087 17.653897,0.559661083 17.5137401,0.40126718 C17.3735832,0.242872143 17.1634553,0.179513221 16.9733192,0.221751368 C15.8923699,0.464623833 14.681367,0.728614805 14.251008,0.802532414 C13.3203189,0.274549335 12.2593613,0 11.1785195,0 C7.74567523,0 4.95337158,2.77718933 4.95337158,6.19850987 C4.95337158,7.40231352 5.31366293,8.72226838 5.95419283,9.88382593 C6.22441403,10.3801239 6.86494393,11.161546 7.50547383,11.9112865 C7.62557453,12.0591421 7.76568843,12.2281038 7.79571898,12.2597628 C8.93665414,13.8753949 8.79654023,16.1034421 7.45543008,17.5501126 C6.73483663,18.3314894 5.76403518,18.7645033 4.73318338,18.7750563 C3.71233818,18.7856093 2.74153673,18.3843679 2.00093007,17.6240971 L2.00093007,17.6134307 L1.99092347,17.5923246 C1.16023592,16.6525392 0.920034524,15.2798533 1.38041337,14.0865686 C1.60059083,13.4952596 2.03094988,13.0411396 2.59141623,12.7877539 C3.14186523,12.5448076 3.75237533,12.5342546 4.31283093,12.7666478 C5.11349868,13.1045712 5.50382058,14.0760156 5.18355563,14.931377 C5.06345493,15.2480808 5.20356883,15.5965572 5.50382058,15.7338598 C5.80407233,15.8606094 6.14435048,15.7127538 6.26445118,15.3959364 C6.82490678,13.917607 6.15435708,12.2386568 4.75319658,11.6366812 C3.91250243,11.2776973 2.98173813,11.2882616 2.14104398,11.6579007 C1.30034982,12.0380361 0.649812248,12.7348753 0.309531948,13.6218957 C-0.310980453,15.2480808 0.0192907749,17.1277652 1.14021197,18.4054739 L1.15022932,18.4265799 C1.16023592,18.437133 1.17024252,18.447686 1.18024912,18.468792 C2.14104398,19.461456 3.41209718,20 4.75319658,19.978894 C6.09430673,19.968341 7.35535333,19.3980244 8.29613498,18.3843679 C9.13682913,17.4762415 9.64724099,16.2724038 9.71729794,15.0052481 C9.78735489,13.7486453 9.43707014,12.5025956 8.73648988,11.4994921 C8.68644614,11.4255075 8.59637598,11.319932 8.38620513,11.0665009 C7.97585928,10.5807673 7.20523283,9.66207651 6.97503803,9.22913068 C6.43459563,8.24707646 6.13434388,7.14888237 6.13434388,6.15627513 C6.13434388,3.41076721 8.40621833,1.1826746 11.1985112,1.1826746 C12.1393036,1.1826746 13.0601043,1.43610575 13.8607398,1.92185068 C13.95081,1.97464979 14.0608718,2.00633152 14.1709337,2.00633152 C14.4211524,1.99576716 15.4420191,1.7845821 16.3127331,1.58395005 C16.0825061,2.51319382 15.8122956,3.6008349 15.7923039,3.82259567 C15.782308,3.93874688 15.8022997,4.04434509 15.8423906,4.14994329 C16.1225969,4.78352117 16.2727497,5.44878078 16.2727497,6.14571077 C16.2727497,7.13831801 15.9724442,8.23652344 15.4320233,9.21856632 C15.1918004,9.65151215 14.4211524,10.5702029 14.0108926,11.0559478 C13.8006572,11.2988146 13.7105871,11.4149545 13.6606078,11.478386 C12.949935,12.4814896 12.5996502,13.7275393 12.6697287,14.984142 C12.7398071,16.2512978 13.2502405,17.4551355 14.0908594,18.3632619 C15.0617468,19.461456 16.3628198,20 17.6738887,20 Z" id="Path"></path>
                    <path d="M11.2793209,10.4 C11.7884114,10.4 12,10.0405793 12,9.84347609 C12,9.63478586 11.9074123,9.6 11.7950147,9.6 L10.6115673,9.6 C10.4925593,9.6 10.4,9.63478586 10.4,9.84347609 C10.4,10.0521788 10.624788,10.4 11.1206294,10.4 L11.2793209,10.4 Z" id="Path"></path>
                    <path d="M15.4485253,21.6 C15.7528013,21.6 16,21.3100494 16,20.9533623 C16,20.5965553 15.7528013,20.3066048 15.4485253,20.3066048 C14.5168078,20.3066048 13.3758751,19.7936798 12.482141,18.9574959 C11.9116746,18.4334282 10.9609654,17.329699 10.9609654,15.8467575 C10.9609654,15.4899506 10.7137667,15.2 10.4094908,15.2 L10.390499,15.2 C10.0862231,15.2 9.83905501,15.4899506 9.83905501,15.8467575 C9.83905501,17.329699 8.88829473,18.4334282 8.31782835,18.9574959 C7.41460864,19.7825371 6.28319216,20.3066048 5.35144403,20.3066048 C5.04719869,20.3066048 4.8,20.5965553 4.8,20.9533623 C4.8,21.3100494 5.04719869,21.6 5.35144403,21.6 C6.53989693,21.6 7.89949995,20.9979332 9.002388,19.983226 C9.60136239,19.4258499 10.0767272,18.8013779 10.3999949,18.1324547 C10.7232626,18.8013779 11.1986682,19.4258499 11.7976222,19.983226 C12.8909736,20.9979332 14.2601133,21.6 15.4485253,21.6 Z" id="Path"></path>
                </g>
            </g>
        </g>
    </g>
</svg>