<svg xmlns="http://www.w3.org/2000/svg" width="46" height="46" viewBox="0 0 46 46"><defs><linearGradient id="wi4wa" x1="38.63" x2="24.13" y1="82.3" y2="-21.72" gradientUnits="userSpaceOnUse"><stop offset="0" stop-color="#2fd8e5"/><stop offset="1" stop-color="#ff6cd6"/></linearGradient></defs><g><g><path fill="url(#wi4wa)" d="M43.7 29.9H27.6v-3.45a1.15 1.15 0 0 0-1.15-1.15h-6.9a1.15 1.15 0 0 0-1.15 1.15v3.45H2.3V10.35c0-.635.515-1.15 1.15-1.15h39.1c.635 0 1.15.515 1.15 1.15zm-23 4.6v-6.9h4.6v6.9zm20.7 8.05a1.15 1.15 0 0 1-1.15 1.15H5.75a1.15 1.15 0 0 1-1.15-1.15V32.2h13.8v3.45c0 .635.515 1.15 1.15 1.15h6.9a1.15 1.15 0 0 0 1.15-1.15V32.2h13.8zM19.55 2.3h6.9a5.75 5.75 0 0 1 5.75 4.6H13.915a5.75 5.75 0 0 1 5.635-4.6zm23 4.6H34.5A8.05 8.05 0 0 0 26.45 0h-6.9a8.05 8.05 0 0 0-7.935 6.9H3.45A3.45 3.45 0 0 0 0 10.35v20.7c0 .635.515 1.15 1.15 1.15H2.3v10.35A3.45 3.45 0 0 0 5.75 46h34.5a3.45 3.45 0 0 0 3.45-3.45V32.2h1.15A1.15 1.15 0 0 0 46 31.05v-20.7a3.45 3.45 0 0 0-3.45-3.45z"/></g></g></svg>