<svg xmlns="http://www.w3.org/2000/svg" width="58" height="57" viewBox="0 0 58 57"><defs><linearGradient id="yxhea" x1="48.71" x2="30.43" y1="101.98" y2="-26.91" gradientUnits="userSpaceOnUse"><stop offset="0" stop-color="#2fd8e5"/><stop offset="1" stop-color="#ff6cd6"/></linearGradient></defs><g><g><path fill="url(#yxhea)" d="M18.858 23c-.859-.09-1.718-.133-2.56-.275-2.52-.425-4.678-1.575-6.41-3.524-1.862-2.096-2.848-4.557-2.885-7.41-.017-1.383.027-2.756.521-4.068 1.48-3.93 4.157-6.492 8.152-7.525 1.032-.267 2.097-.201 3.151-.158 1.875.077 3.614.605 5.185 1.676 1.54 1.049 2.777 2.401 3.762 4.002.34.553.323.63-.238.94a12.92 12.92 0 0 1-1.167.556c-.351.151-.414.12-.614-.22-1.235-2.103-2.994-3.517-5.265-4.267-.708-.234-1.437-.272-2.17-.272-1.695.002-3.322.26-4.78 1.248-2.137 1.451-3.592 3.39-4.048 6.018-.966 5.57 2.786 9.8 7.01 10.57.557.1 1.125.135 1.687.204.481.06.646.216.664.707.02.58.005 1.161.005 1.798M4.786 41.532a5.6 5.6 0 0 0 .04.095c.152.02.305.052.457.056.702.018 1.406.036 2.109.035.223 0 .304.053.354.29.23 1.087.434 2.185.761 3.245 1.025 3.314 3.196 5.71 6.202 7.402.323.181.67.322 1.006.481l.05-.053c-2.39-3.423-2.962-7.3-2.937-11.387H16.2l-5.762-5.518-5.653 5.354M10.462 33c.426.392.845.77 1.253 1.157 2.697 2.555 5.39 5.114 8.09 7.667.15.141.185.252.096.445-.225.493-.436.994-.627 1.5-.076.2-.186.25-.388.255a229.3 229.3 0 0 0-3.072.1c-.184.007-.366.04-.586.064.062.449.12.876.18 1.302.262 1.855.76 3.634 1.711 5.27.74 1.272 1.708 2.351 2.837 3.296.314.262.61.545.918.812.126.108.163.209.086.374-.2.43-.364.877-.572 1.303-.227.467-.33.527-.824.391-.938-.259-1.874-.529-2.794-.84-1.988-.674-3.858-1.575-5.497-2.904-2.8-2.268-4.68-5.108-5.461-8.63-.07-.314-.198-.41-.516-.412-1.102-.007-2.205-.05-3.308-.07-.168-.003-.266-.048-.33-.21a54.654 54.654 0 0 0-.614-1.473c-.08-.185-.05-.333.089-.474.753-.772 1.48-1.571 2.262-2.314 2.249-2.136 4.52-4.25 6.784-6.371.084-.08.176-.15.283-.238m24.581.575c5.497.188 11.573-4.602 11.526-11.54-.048-6.953-5.515-11.614-11.63-11.62-6.277-.006-11.527 5.226-11.53 11.5-.004 6.816 5.595 11.76 11.634 11.66M34.95 36C26.808 35.971 21 29.101 21 22.048c.001-7.353 6.045-13.983 13.776-14.047C42.782 7.934 48.982 14.323 49 21.944c.018 7.801-6.247 14.05-14.05 14.056M.03 32.596l.048-.179c1.374-5.067 4.378-8.851 8.995-11.365.174-.096.273-.05.401.064.709.635 1.388 1.308 2.143 1.883 1.783 1.355 3.827 1.92 6.06 1.802.516-.027 1.03-.11 1.546-.166.103-.012.206-.021.347-.036l.418 1.927c.043.196-.032.32-.23.355-.368.065-.735.159-1.105.181-1.512.093-3.025.103-4.5-.299-1.806-.492-3.415-1.375-4.87-2.543-.15-.12-.306-.23-.47-.354-3.071 2.167-5.243 4.979-6.305 8.594-.245.833-.395 1.696-.61 2.54-.003.015-2.177-1.235-1.868-2.404M58 55.787c-.031.244-.055.489-.094.731-.077.482-.08.482-.558.482H26.065c-.63 0-1.14-.508-1.14-1.133 0-.626.51-1.133 1.14-1.133h29.5c-.006-3.157-.455-6.198-1.703-9.095-1.521-3.53-4.216-6.542-7.75-8.646-.358.281-.72.575-1.09.857-2.1 1.607-4.392 2.815-7.04 3.25-3.8.625-7.373-.012-10.67-1.999-.88-.529-1.686-1.186-2.501-1.815-.285-.22-.525-.257-.802-.056-.804.581-1.607 1.162-2.403 1.753-.311.23-.603.484-.835.673L19 38.036c.678-.563 1.283-1.142 1.962-1.612 1.167-.807 2.381-1.543 3.572-2.316.195-.127.33-.097.494.055.767.704 1.506 1.445 2.323 2.087 2.396 1.882 5.144 2.689 8.196 2.653 3.355-.039 6.158-1.309 8.586-3.522.454-.415.895-.845 1.337-1.272.1-.096.172-.151.327-.07 3.357 1.775 6.234 4.093 8.39 7.239a20.738 20.738 0 0 1 3.323 8.115c.216 1.193.3 2.41.444 3.616.011.096.03.191.046.286z"/></g></g></svg>