<svg xmlns="http://www.w3.org/2000/svg" width="106" height="106" viewBox="0 0 106 106"><defs><linearGradient id="mgpqa" x1="71.66" x2="53.91" y1="137.35" y2="1.67" gradientUnits="userSpaceOnUse"><stop offset="0" stop-color="#2fd8e5"/><stop offset="1" stop-color="#ff6cd6"/></linearGradient></defs><g><g><path fill="none" stroke="url(#mgpqa)" stroke-miterlimit="50" d="M53 105c28.719 0 52-23.281 52-52S81.719 1 53 1 1 24.281 1 53s23.281 52 52 52z"/></g><g><g><path fill="url(#mgpqa)" d="M36.652 44.689c1.321 0 2.642-.02 3.963.006.898.018 1.417.841 1.032 1.582-.207.398-.553.591-1.001.592-2.66.003-5.32.012-7.98-.002-.668-.003-1.14-.498-1.133-1.099.006-.6.478-1.068 1.156-1.078 1.321-.018 2.642-.005 3.963-.005zm2.852 6.715h-6.637c-.822-.001-1.347-.441-1.334-1.11.013-.652.535-1.087 1.32-1.087 4.443-.002 8.885-.003 13.327 0 .803 0 1.286.42 1.29 1.1.004.69-.461 1.095-1.276 1.096-2.23.003-4.46 0-6.69 0m9.91 17.896c1.228.405 2.443.612 3.701.45 1.347-.174 1.639-.44 1.888-1.75.452-2.37.36-4.76.193-7.146a1.301 1.301 0 0 0-.791-1.13c-1.567-.672-3.145-.682-4.713.02-.307.138-.35.324-.278.672.245 1.19.509 2.387.598 3.593.131 1.77-.136 3.523-.598 5.291M69.92 59.275c-.473-.07-.838-.138-1.206-.179-2.249-.25-4.493-.295-6.701.284-1.651.432-3.158 1.134-4.201 2.557-.131.18-.27.407-.274.614-.023 1.447-.012 2.893-.012 4.402 3.329-.13 6.746-.141 9.846 1.735l2.548-9.413M37.227 68.56c.12-.011.16-.006.189-.02.064-.03.124-.068.184-.105 1.533-.934 3.2-1.416 4.994-1.27 1.507.12 3.006.347 4.502.57.367.056.462-.028.523-.362.272-1.489.337-2.98.199-4.489-.117-1.27-.64-2.262-1.787-2.881-.625-.337-1.243-.7-1.903-.956-2.27-.878-4.625-.964-7.004-.58-.918.148-1.82.4-2.79.617 1.352 3.12 2.473 6.183 2.893 9.476m19.786-9.166c1.074-.542 2.085-1.152 3.168-1.58 2.325-.92 4.773-1.177 7.256-1.011 1.279.086 2.552.28 3.821.467.796.117 1.175.636.987 1.395-.713 2.882-1.47 5.754-2.192 8.634-.374 1.491-.706 2.992-1.064 4.487-.195.812-.71 1.384-1.44 1.758-1.66.851-3.43 1.068-5.254.76-.963-.163-1.912-.425-2.855-.685-.719-.198-1.054-.794-.863-1.41.19-.612.784-.862 1.518-.689 1.038.245 2.076.574 3.13.651.94.069 1.916-.089 2.852-.272.714-.14.773-.467.331-1.06-.587-.788-1.453-1.129-2.359-1.361-1.852-.476-3.742-.507-5.639-.384-.107.007-.214.042-.319.033-.781-.067-1.269.194-1.538 1.002-.289.865-1.106 1.239-1.94 1.43-2.362.544-4.685.372-6.922-.565-.32-.134-.533-.521-.793-.793-.099-.103-.176-.285-.289-.308-1.979-.406-3.97-.778-5.995-.41-1.148.208-2.182.681-2.868 1.69-.377.553-.274.957.386 1.1.559.12 1.178.127 1.741.025 1.209-.22 2.397-.547 3.595-.819.645-.146 1.188.19 1.345.81a1.051 1.051 0 0 1-.789 1.308c-1.368.326-2.735.684-4.122.902a4.605 4.605 0 0 1-3.545-.872c-.769-.57-1.195-1.32-1.185-2.314.037-3.407-.924-6.6-2.188-9.72-.351-.87-.734-1.728-1.086-2.598-.302-.746-.038-1.32.73-1.601 3.68-1.346 7.433-1.732 11.235-.636 1.217.35 2.356.98 3.509 1.529.285.136.438.14.703-.027 2.187-1.373 4.488-1.621 6.889-.604a4.389 4.389 0 0 1 2.05 1.738M51.877 90a1.74 1.74 0 0 1-1.001-1.044c-.409-1.106-.79-2.221-1.206-3.4-.925-.075-2-.09-3.047-.268a36.777 36.777 0 0 1-3.895-.899c-.926-.264-1.133-.948-.65-1.796 1.042-1.833 2.121-3.647 3.134-5.497.697-1.272 1.01-2.675 1.201-4.104.104-.781.583-1.17 1.297-1.067.634.092.983.662.9 1.394-.292 2.567-1.263 4.883-2.619 7.061-.458.736-.903 1.479-1.413 2.316.66.139 1.239.288 1.827.378 2.185.337 4.378.278 6.574.11.418-.032.51-.2.478-.61-.214-2.774-.585-5.52-1.307-8.215-.153-.572.225-1.134.822-1.3a1.074 1.074 0 0 1 1.327.78c.239.886.483 1.782.599 2.69.308 2.418.577 4.843.802 7.271.089.967-.279 1.308-1.241 1.414-.777.086-1.555.166-2.457.262.207.678.384 1.317.617 1.935.03.082.38.13.532.07 1.89-.733 3.783-1.462 5.65-2.252.794-.337 1.527-.816 2.324-1.25-.564-.699-1.095-1.316-1.58-1.966-1.536-2.058-2.88-4.226-3.62-6.703-.205-.688-.31-1.417-.367-2.135-.061-.771.429-1.275 1.111-1.271.67.003 1 .48 1.115 1.227.15.969.336 1.961.707 2.862 1.114 2.707 2.863 5.009 4.9 7.1.804.824.79 1.449-.16 2.09-3.216 2.168-6.726 3.702-10.482 4.689-.115.03-.224.085-.336.128zm-19.78-19.064c.563 0 1.02.452 1.02 1.01s-.457 1.01-1.02 1.01h-6.72a1.014 1.014 0 0 1-1.018-1.01V31.01c0-.558.456-1.01 1.018-1.01h54.283c.562 0 1.018.452 1.018 1.01v40.936c0 .558-.456 1.01-1.018 1.01h-7.72a1.014 1.014 0 0 1-1.02-1.01c0-.558.457-1.01 1.02-1.01h6.701V32.02H26.397v38.916z"/></g></g></g></svg>