<svg xmlns="http://www.w3.org/2000/svg" width="106" height="106" viewBox="0 0 106 106"><defs><linearGradient id="rkjfa" x1="68.63" x2="54.13" y1="112.3" y2="8.28" gradientUnits="userSpaceOnUse"><stop offset="0" stop-color="#2fd8e5"/><stop offset="1" stop-color="#ff6cd6"/></linearGradient></defs><g><g><path fill="none" stroke="url(#rkjfa)" stroke-miterlimit="50" d="M53 105c28.719 0 52-23.281 52-52S81.719 1 53 1 1 24.281 1 53s23.281 52 52 52z"/></g><g><g><path fill="url(#rkjfa)" d="M73.7 59.9H57.6v-3.45a1.15 1.15 0 0 0-1.15-1.15h-6.9a1.15 1.15 0 0 0-1.15 1.15v3.45H32.3V40.35c0-.635.515-1.15 1.15-1.15h39.1c.635 0 1.15.515 1.15 1.15zm-23 4.6v-6.9h4.6v6.9zm20.7 8.05a1.15 1.15 0 0 1-1.15 1.15h-34.5a1.15 1.15 0 0 1-1.15-1.15V62.2h13.8v3.45c0 .635.515 1.15 1.15 1.15h6.9a1.15 1.15 0 0 0 1.15-1.15V62.2h13.8zM49.55 32.3h6.9a5.75 5.75 0 0 1 5.75 4.6H43.915a5.75 5.75 0 0 1 5.635-4.6zm23 4.6H64.5a8.05 8.05 0 0 0-8.05-6.9h-6.9a8.05 8.05 0 0 0-7.935 6.9H33.45A3.45 3.45 0 0 0 30 40.35v20.7c0 .635.515 1.15 1.15 1.15h1.15v10.35A3.45 3.45 0 0 0 35.75 76h34.5a3.45 3.45 0 0 0 3.45-3.45V62.2h1.15A1.15 1.15 0 0 0 76 61.05v-20.7a3.45 3.45 0 0 0-3.45-3.45z"/></g></g></g></svg>