<svg xmlns="http://www.w3.org/2000/svg" width="106" height="106" viewBox="0 0 106 106"><defs><linearGradient id="2a9ma" x1="72.26" x2="53.93" y1="127.14" y2="-10.8" gradientUnits="userSpaceOnUse"><stop offset="0" stop-color="#2fd8e5"/><stop offset="1" stop-color="#ff6cd6"/></linearGradient></defs><g><g><g><path fill="url(#2a9ma)" d="M52.057 30.783l-4.993 2.634.953-5.578-4.04-3.95 5.583-.814L52.057 18l2.497 5.075 5.584.814-4.04 3.95.953 5.578zM73.508 44.24l-4.994 2.633.954-5.577-4.04-3.95 5.583-.814 2.497-5.075 2.497 5.075 5.584.813-4.04 3.95.953 5.578zm-42.008 0l-4.994 2.633.954-5.577-4.04-3.95 5.583-.814 2.497-5.075 2.497 5.075 5.584.813-4.04 3.95.953 5.578zm13.42 21.228a.918.918 0 0 1-.812 1.011c-4.569.497-7.41 2.575-9.087 5.841-1.142 2.226.66 4.844 3.434 4.844H66.39c2.893 0 4.759-2.73 3.597-4.994-1.676-3.267-4.49-5.318-8.9-5.688a.917.917 0 0 1-.836-.992.916.916 0 0 1 .988-.839c5.067.426 8.422 2.87 10.375 6.678C73.428 74.863 70.601 79 66.39 79H38.455c-4.091 0-6.857-4.021-5.06-7.521 1.949-3.8 5.316-6.262 10.516-6.827a.916.916 0 0 1 1.008.815zm-4.934-12.482c0-7.414 5.585-13.456 12.518-13.456 6.934 0 12.518 6.042 12.518 13.456s-5.584 13.456-12.518 13.456c-6.933 0-12.518-6.042-12.518-13.456zm23.249 0c0-6.458-4.824-11.661-10.73-11.661-5.907 0-10.731 5.203-10.731 11.661 0 6.459 4.824 11.662 10.73 11.662 5.907 0 10.73-5.203 10.73-11.662z"/></g></g><g><path fill="none" stroke="url(#2a9ma)" stroke-miterlimit="50" d="M53 105c28.719 0 52-23.281 52-52S81.719 1 53 1 1 24.281 1 53s23.281 52 52 52z"/></g></g></svg>