<svg xmlns="http://www.w3.org/2000/svg" width="106" height="106" viewBox="0 0 106 106"><defs><linearGradient id="okpaa" x1="78.93" x2="55.69" y1="98.34" y2="24.87" gradientUnits="userSpaceOnUse"><stop offset="0" stop-color="#2fd8e5"/><stop offset="1" stop-color="#ff6cd6"/></linearGradient></defs><g><g><path fill="none" stroke="url(#okpaa)" stroke-miterlimit="50" d="M53 105c28.719 0 52-23.281 52-52S81.719 1 53 1 1 24.281 1 53s23.281 52 52 52z"/></g><g><g><path fill="url(#okpaa)" d="M79.942 70.604c4.816 0 8.735-3.972 8.735-8.853 0-4.882-3.919-8.853-8.735-8.853-4.817 0-8.735 3.97-8.735 8.853 0 4.881 3.918 8.853 8.735 8.853zm-10.223-5.307a11.03 11.03 0 0 1-.584-3.546c0-6.008 4.797-10.9 10.713-10.951l-1.455-4.178a1.27 1.27 0 0 1-.018-.056c-.537-1.876-2.256-3.182-4.182-3.182h-.016l-43.182-1.038 4.578 21.406a1.951 1.951 0 0 0 1.89 1.545zM32.886 61.1l-3.6-16.833L19.819 61.1zm49.237-10.078c4.917 1.025 8.626 5.446 8.626 10.729 0 6.04-4.848 10.953-10.807 10.953-4.01 0-7.515-2.227-9.38-5.523a1.02 1.02 0 0 1-.623.216H37.463c-1.872 0-3.519-1.346-3.915-3.2l-.213-.997h-15.3c-.368 0-.71-.198-.895-.522a1.063 1.063 0 0 1-.004-1.047l11.553-20.544c.03-.178.1-.348.216-.491.179-.219.438-.346.712-.37.105-.018.212-.022.32-.006l44.261 1.064h.024c2.804 0 5.331 1.914 6.134 4.666zm-15.157 5.982c.569 0 1.031.424 1.034.949.003.526-.457.955-1.028.958l-19.933.093h-.005c-.569 0-1.031-.424-1.034-.949-.003-.526.457-.955 1.029-.957l19.932-.094h.005m17.319 1.257c.442-.39 1.1-.33 1.471.137a1.14 1.14 0 0 1-.13 1.549l-6.493 5.73c-.057.05-.119.09-.182.126-.18.132-.387.201-.594.201-.3 0-.597-.135-.804-.397l-2.312-2.934a1.141 1.141 0 0 1 .136-1.549 1.01 1.01 0 0 1 1.471.144l1.652 2.097 5.785-5.104M73 51.997c0 .55-.467.995-1.045.995l-28.909.012c-.578 0-1.046-.445-1.046-.993 0-.55.468-.994 1.045-.995l28.909-.012c.578 0 1.046.445 1.046.993"/></g></g></g></svg>